<mxfile host="app.diagrams.net" modified="2024-05-09T17:40:37.691Z" agent="Mozilla/5.0 (X11; Linux x86_64) AppleWebKit/537.36 (KHTML, like Gecko) Chrome/124.0.0.0 Safari/537.36" etag="CsT2zPC6oFpsy-obuCTl" version="24.3.0" type="device">
  <diagram name="Page-1" id="Fqz91JRLTB0PQQEZ8BIY">
    <mxGraphModel dx="989" dy="523" grid="1" gridSize="10" guides="1" tooltips="1" connect="1" arrows="1" fold="1" page="1" pageScale="1" pageWidth="827" pageHeight="1169" math="0" shadow="0">
      <root>
        <mxCell id="0" />
        <mxCell id="1" parent="0" />
        <mxCell id="vD54dHwGd8fO52R0_b3Y-1" value="" style="shape=image;verticalLabelPosition=bottom;labelBackgroundColor=default;verticalAlign=top;aspect=fixed;imageAspect=0;image=data:image/png,iVBORw0KGgoAAAANSUhEUgAAAgAAAAIACAYAAAD0eNT6AAAAAXNSR0IArs4c6QAAIABJREFUeAHt3QeUNEd1KOArgYRARBFFDgYMAgMCPzLGMkmAyDnaRBsOPGzAgMkSOUeTczDhAMJkEBmMyPBIAmOMyBkDIijB2yvt/l7Nv7uTqjrUfH3Onk093VVfVd2609MhwkKAAAECBAgQIECAAAECBAgQIECAAAECBAgQIECAAAECBAgQIECAAAECBAgQIECAAAECBAgQIECAAAECBAgQIECAAAECBAgQIECAAAECBAgQIECAAAECBAgQIECAAAECBAgQIECAAAECBAgQIECAAAECBAgQIECAAAECBAgQIECAAAECBAgQIECAAAECBAgQIECAAAECBAgQIECAAAECBAgQIECAAAECBAgQIECAAAECBAgQIECAAAECBAgQIECAAAECBAgQIECAAAECBAgQIECAAAECBAgQIECAAAECBAgQIECAAAECBAgQIECAAAECBAgQIECAAAECBAgQIECAAAECBAgQIECAAAECBAgQIECAAAECBAgQIECAAAECBAgQIECAAAECBAgQIECAAAECBAgQIECAAAECBAgQIECAAAECBAgQIECAAAECBAgQIECAAAECBAgQIECAAAECBAgQIECAAAECBAgQIECAAAECBAgQIECAAAECBAgQIECAAAECBAgQIECAAAECBAgQIECAAAECBAgQIECAAAECBAgQIECAAAECBAgQIECAAAECBAgQIECAAAECBAgQIECAAAECBAgQIECAAAECBAgQIECAAAECBAgQIECAAAECBAgQIECAAAECBAgQIECAAAECBAgQIECAAAECBAgQIECAAAECBAgQIECAAAECBAgQIECAAAECBAgQIECAAAECBAgQIECAAAECBAgQIECAAAECBAgQIECAAAECBAgQIECAAAECBAgQIECAAAECBAgQIECAAAECBAgQIECAAAECBAgQIECAAAECBAgQIECAAAECBAgQIECAAAECBAgQIECAAAECBAgQIECAAAECBAgQIECAAAECBAgQIECAAAECBAgQIECAAAECBAgQIECAAAECBAgQIECAAAECBAgQIECAAAECBAgQIECAAAECBAgQIECAAAECBAgQIECAAAECBAgQIECAAAECBAgQIECAAAECBAgQIECAAAECBAgQIECAAAECBAgQIECAAAECBAgQIECAAAECBAgQIECAAAECBAgQIECAAAECBAgQIECAAAECBAgQIECAAAECBAgQIECAAAECBAgQIECAAAECBAgQIECAAAECBAgQIECAAAECBAgQIECAAAECBAgQIECAAAECBAgQIECAAAECBAgQIECAAAECBAgQIECAAAECBAgQIECAAAECBAgQIECAAAECBAgQIECAAAECBAgQIECAAAECBAgQIECAwCAETh0Rl4mIu0bEoyPi5hFx/kGUTCEIECBwssD5IuKm6zHq7hFxuYjI2GUhQGABgZz0PxARv4uIP23x9ZOIeEFEnGmBbXsJAQIElhU4Q0Q8NyJ+tEV8ypj1+4j4cERcftkdeT2BVRHIrPlhEXHcNoNqMhn4bkRcd1Vw1JMAgUEIHBQR354xRh0fEYdGxF6DKLlCEBiowOkj4lMzDqrJRODxA62TYhEg0JbAoyLijwvEqc87YtlWR1CbsgLPW2BQbU4EHAko2x62RoDAKQWuueDkvxGnXnbKzfmNAIEUuNaSAysHWH4c4JwA/YkAgRoCeYTyW0u+Sck4dYMahbNNAmMV2Cciji4wsHJw5YmBFgIECJQWeGahGPWDiNi3dOFsj8BYBa5UaGBlApBn5FoIECBQWmDWk/4yDk37yo8SLAQIRMS9Zxgw0wbU5v+fhyoBAgQKCpy1cIy6f8Gy2RSBUQu8pPDgOmTUGgpPgMDQBK5dOEa9ZmgVVB4CfQl8tvDgenhfFbFfAgSaFHhg4Rj1lSaVVIrAAgJHFR5cT1igDF5CgACB7QTy2v/NHzMu+3OeT2AhQCAiJAC6AQECQxaQAAy5dZRt1AISgFE3n8ITaF5AAtB8E+9ewYtExK3Xrtl88toT6d4SEYf7qmLwm8KH176hnaq0U/b/168/q+F6EXG23YeMv3QscJaIyBPUHhIRr9Pvq/X70m9S8iFn5pM6BjlX55ydc3fO4XMvd1m7NO2nhSelZT8z8vqyn8HxLOP5hYj4y7lHmBcsK/AXEfFJMaro5/JiQpmYMDTHnMtzTp+67B8RbzeoDCp9YK4+cMLas88f42lnU+NLiRXmfVrm0IKx8rQ5yY6hXXNuzzl+y+USEfFzgX+uwD+GRlfG7gLOkRGx95ajyx9LCOTk/xExSozSBxbuAznH51x/iiUH1qKPoTXBdDfBsB6+9eNOMbL8UlLgEQL/woFf7Bh+7OiqjXKuzzl/1/IwA8vA0geK9IH8OOCKu0aWH0oJXC4ijtNHi/TRriYa+xlu0pFz/knLhQ0sg0pgLdoH3OVsI7qU+/4ZfbRoHzU5D3dy7qJtMpnOuf+kswO72KF9rHaHW7X2P3e5uW/lt5SX+q1a/1FfbV67D5x0ZcDzDC7BRR8o3gduvPLTdjmAv9E/i/fP2pOL7Q8/gcm5Pz5tcBlc+kDxPnBYuflv5bdU+kE0JqfhT07aqH4b5dwfvxb8iwd/nbd+5x268RtWftouB/AiMUqM0geK94Gc+x0B0LGKd6yhT85dlM8RgHIJgCMAEuouxuyq7eOkIwDOATC4Vq3jd1Ff5wCUSwCcAyBGdTFmV20fJ50DkGcCrlrF1Veb1+4DrgIolwC4CsB4rT1eV3H7J10F4D4ABtcqdv6adXYfgHKT/8aWPuuNijdq+kCxPrDrPgA5wNxiUxJQc0JcpW2fGBFX3pi1fC8mcGBEHG8CKDYBrNKYVNfd57ec83cteV9gGfbuSDoOk3n7wJN2jSo/lBY4VAIgAdAHlu4DOdef4lkAOVAvFRG/grs07rwThvXbSTJyYJ2m9Kxne7sE9oqIT4hRYpQ+sHAfyDk+5/otl/NFxPvgLoxrMm9nMp+nLfOwf77zN/lvGVaK/jEft/wYHweIUeapuftAzu05x++47BER93I0YG7ceSYM67aTKOQJfz7z3zGkVPnnFSLiiyYBcUofmNoH8l1/zuk5t8+87BkRB0TEnSPi2WuPOH1XRLzbVxWDYwp34m9rpyrtlP3/rRGRN/nJ6/xd6jdzOKm24v5r5y8dshbcHh0Rh+v31fr9twrHqIx55pM6BjlX55ydc3fO4TmXWwYscFThwfWMAddV0QgQGJ/AEwrHqIx5FgIEIkICoBsQIDBkAQnAkFtH2UYtIAEYdfMpPIHmBSQAzTexCvYlIAHoS95+CRCYRUACMIuSdQgsICABWADNSwgQ6ExAAtAZtR2tmoAEYNVaXH0JjEtAAjCu9lLaEQlIAEbUWIpKYAUFJAAr2Oiq3I2ABKAbZ3shQGAxAQnAYm5eRWCqgARgKpEVCBDoUUAC0CO+XbctIAFou33VjsDYBSQAY29B5R+sgARgsE2jYAQIRIQEQDcgUElAAlAJ1mYJECgiIAEowmgjBHYXkADsbuIvBAgMR0ACMJy2UJLGBCQAjTWo6hBoTEAC0FiDqs5wBCQAw2kLJSFAYHcBCcDuJv5CoIiABKAIo40QIFBJQAJQCdZmCUgA9AECBIYsIAEYcuso26gFJACjbj6FJ9C8gASg+SZWwb4EJAB9ydsvAQKzCEgAZlGyDoEFBL4eEX8q+PXMBcrgJQQIENhO4IkF41PGunzTYyGwsgKnjYi/i4hPFR5YObiOj4g3RcS1ImKPlRVWcQIElhW4ZkS8ISKOqxCnPhIRt42IvZctpNcTGIvAfhHx1Ij4RYUBtdVRhDy68A8RcaqxACknAQK9CuwZEXeLiK92FKN+HBGPjYgz9lprOydQUSDfiec7/p92NKgmk4HPRcQVK9bPpgkQGL/A5SLikz3FqB+uHxEYv6IaENgkcPG1w/Ef62lQbU4E/hgRL4iI028qmx8JECCwT0Q8PSJOGECcOiIiLqxJCLQgcFBE/HIAg2pzIvD5iDhPC7jqQIDA0gJni4iPDyxG/SwirrZ0zWyAQI8Ceci/xskzmyfzRX/+XkRctkcbuyZAoH+BPDr5zYFN/hsx7Q8Rcbv+iZSAwPwCDxzooNoYXPn9NxFxlfmr5hUECDQgcJkOT0beHHfm/fm+DVirwgoJ3Doi8vP2eTt6H+vnSYk+b1uhzqmqBCLi3BHx3ZHEqBMj4qZajcAYBK4cEb8fycDaSDi+FhFnGQOuMhIgsLTAvhHx2ZHFqN9GxBWWrrkNEKgocM6I+MnIBtZGEvCeii42TYDAcAReP9IYlZcJ5gmLFgKDFHjNSAfWRhJwx0GqKhQBAqUEDhl5jHp5KQjbIVBS4G9GPrAyCcg7cvkooGSvsC0CwxE4XUR8u4E49VfDIVUSAiffy/obDQysTAKeP6IGzbsrniMi8mzmK/li0GEfyEto8yO/vG3uWJbST/TbOHLY9fe8RfFeY0FXzvYF7tTI5J8DOR8klGcID23JZxlk5v+09VuV5hnMWdaug4/9Md/cB7IP5j018qFez1jvo0N87kYe2csT6TaXfcw/uz/A0CL0CpfnyIYGVgaFRw6oLXPSz8/98s5gYw5Yyr467ZeX1r50PRkYylB6QGPj56NDgVWO1Ra4fGMDKyeqfEdz6p6b9dIR8Y4GbSUCq5MIZFu/a/0jqj6HU35M8a0Gx1LGCAuBXgVe2ODAysB1455UzxURL4uIvPmHyZJBC30g+/Krevxo7eBGx9Jze4pRdktgl8DRjQ6uPk4GPHBEdydrYWJSh24TrLyOPU9W7XrJcxNabOs8qmEh0JtA3kK3xYGVdTqqY9WbN3aSUqv9Qr2WG/P5gJuu77fxuYbj1Pk7jlN2R2CXwF0aHlgZ6PffVdO6P+QJSmN5doIJcLkJkN/JfofVHVK7tn6mxj9Ou/OumvqBQMcCeaZvywHtVh143qZxw5b7h7otN/7v2cH4uk7j4+vFHRjaBYEtBd7X+OC6/5a1LvfHfLjH7xo3NEkuN0m27HdcRFyz3HDackt3bXx8vXfLWvsjgQ4EvtD44Mo7h9Va8mZD32/cr+XJS93KJDZ5f4uaj+N+cONj7PO1ApTtEpgm0PoE9pJpAEv8/62NByYTZJkJchUcP7TEOJr20qc2Ps7yniUWAr0IHNv44MpJusZyjcbdVmHSUseyCc71awy0iHhF42MtY7CFQC8CrQfBd1dS/WTjQan1fqF+ZSf/9Px/lR4s9LoVGGuVwpTNEthZoPVAWCMByCsLWndTP228SB+ocUmbBGDnGO6/BBYWWGSQj+k1NRKAD0sAJED6wJZ9IJ8oWHqRAJQWtT0C6wJjmswXKWvpBOCsEXGC4L9l8F+kfbymrSMNeTOs8xaOrhKAwqA2R2BDoPUAXDoByEOcrZupnzZepg/ceyO4FPouASgEaTMEJgWWGehjeG3pBOBNEgAJkD6wYx84YjLILPm7BGBJQC8nsJ3AGCbxZcpYOgH4leC/Y/Bfpq28to0jD8dHxF7bBZwF/i4BWADNSwjMItB60C2ZAORDSVr3Uj9tXKIPnG+W4DPjOhKAGaGsRmBegRKDfcjbKJkAHCABkADpAzP1gSvOG4h2WF8CsAOOfxFYRmDIk3eJspVMAFp/KlkJb9twBCH7wE2XCUoTr5UATID4lUApgdYDdskE4C7e/c307q/1PqV+05OcklcCSABKRXvbITAh0HowK5kA3E8CIAHQB2bqA/kEv1KLBKCUpO0QmBBoPQE4JiKOKvT1Y8F/puDfep9Sv+lHAH5SaMzl2P31Coy7ibDsVwLdCAhm04MZI0b6gD5Qsw90E+3thcCEQM1ObduCpj6gD+gD0/vARFj2K4FuBAzO6YOTESN9QB+o2Qe6ifb2QmBCoGantm1BUx/QB/SB6X1gIiz7lUA3Agbn9MHJiJE+oA/U7APdRHt7ITAhULNT27agqQ/oA/rA9D4wEZb9SqAbAYNz+uBkxEgf0Adq9oFuor29EJgQqNmpbVvQ1Af0AX1geh+YCMt+JdCNgME5fXAyYqQP6AM1+0A30d5eCEwI1OzUti1o6gP6gD4wvQ9MhGW/EuhGwOCcPjgZMdIH9IGafaCbaG8vBCYEanZq2xY09QF9QB+Y3gcmwrJfCXQjYHBOH5yMGOkD+kDNPtBNtLcXAhMCNTu1bQua+oA+oA9M7wMTYdmvBLoRMDinD05GjPQBfaBmH+gm2tsLgQmBmp3atgVNfUAf0Aem94GJsOxXAt0IGJzTBycjRvqAPlCzD3QT7e2FwIRAzU5t24KmPqAP6APT+8BEWPYrgW4EDM7pg5MRI31AH6jZB7qJ9vZCYEKgZqcewrb/OyKeX+jryBAEh9CmyjD8fnjEWpx5VKGvo1Zg3E2EZb8S6Eag9WB6eEHGB69AIGq9P6hfN8lDjpVSS47h1tutlJXtEJhLoPWBJQFoP3i23ofHWD8JwHzjbq6gbWUCpQTGGFzmKXPJBOD+K/BOZB5b684X5FfJ6x9LBaiIcASgIKZNEdgs0HpQKpkA3FYC0Pyh2NbHQ1f1u/XmILPkzxKAJQG9nMB2Al0FhL72UzIBuIYEQAKgD8zUB666XcBZ4O8SgAXQvITALAJ9Tcxd7bdkAnBhwX+m4N9V29rPcD+CuOAswWfGdSQAM0JZjcC8Aq0H0ZIJwD4SAAmAPjC1D/wxIvaeNxDtsL4EYAcc/yKwjIAEYD69L5sApk4Arfcp9dv5yMPn5htSU9eWAEwlsgKBxQRaD2YljwCk8GESAAmAPrBjH3jkYqFo21dJALal8Q8CywlIAObzO1Dw3zH4t96f1G/nd//pc9n5htTUtSUAU4msQGAxgdYDWukjAKn8bUmAJEAf2LIPHL1YGNrxVRKAHXn8k8DiAq0nAG9ZnGbbVz5W8N8y+Lfel9Rv+rv/x207ahb/R47h1u0X1/FKAksI/KrxwfWKJWy2e+mZI+Lnjbu1HnDVr/ykmmMix0bpJcdwy+2VMdhCoBeBrzU+uB5fSfWfGndrOeCqW50JteTtfzcP2xzDLbdZxmALgV4E3t/44LpPJdXTREQ+arjlwKRu2nfWPvCtwtf+bx62OYZnLccY18sYbCHQi8CrGh9cN6+oesOIyJuejDHoKLN2K9UHToyIgyuOsxzDpco6xO1kDLYQ6EXgiY0PritXVs3Hng4xqCiTdumqD5R89O9WwzXHcFd16WM/GYMtBHoRuFPDg+uEiDhLB6qvbNiwj4Bon+OZ8F7bwfjKMZxjudV+kTHYQqAXgf0aHlwf7Eg0zwf4aMMBqtXAq17LTapHRsRpOxpjOZZbbK9MbDIGWwj0JtDq4Pq/HYpmIMx3Qy0GKXXSrpN94I0RcboOx1eO5ckytPB7V29SOmwquxqbQKuD6wI9NMRDnRjYZKBuYbIpUYc86fVREbFHx2Mrx3KJ8g9tG12+Sem4yexuLAItDq7P94h/44j4YaMBa2gBVHm6mxizT9e8qmbakM0x3Vp79/EmZZqz/6+gwDsbG1z36LkN9107t+JhEfHrxlxbC8DqM31SzTvV5ZGt7NN9LjmmW2qvjLkWAoMQuHRE5PW8LQywvLPWqQahGnG2iHi6Wwc30a9aGBvz1OHHa5P+kyPirAMZSzmmW7lzacbajLkWAoMReFkjCUAegh/aksHrmuvJQN41bZ5AbF1eXfWBvLvl0yLi6hGx59AGUUTk2O7KouZ+MtZaCAxK4LwR8fuRD7C8HG8My/4RcfmIyLsJ5qHNR0bEE5b8ev3I265mwG1t229fsq9kX8uT+e4ZEYdExBUi4txjGDgNXHKbMTZjrYXA4ARyIhprsDxuPZANDrWjAl1vxG031j7XV7n/tqM+NcTdZLKSY70v+2X3mzHWQmCQAnnY720jHVx3H6Rod4W69kjbbdmAuoqvv2N33WqQe8qxPsZ2z9g6xI9WBtnICtWPwBki4isjG2DP6odqUHu97MjabIwBfChlrvnwnUF16h0Kk2N+KO0xSzkypmZstRAYvMBFRnTm+hERcerBi9YvYJ5XMEsgss74nQ6s350Gv4cc8zn2x9Cffx4RGVMtBEYjcLWI+MXAB1jej7yLB/6ModEyIHo88TgmhGUnrfOMoUN2UMYc+xkDlvWs+fqMoRlLLQRGJ/BnA7729tVrZ0LvMzrRegW+UcMPdqoZoMe47dvV60aj23LGgIwFQ2zHvG9BxlALgdEKnCki3j2gAZbvch8yWs3yBd97/f4CQwyAylRvYnq+BPgUgyljwpCOgGXMzNhpITB6gbyRzePWJt5je04Evh8R+U7XcrJAfq74mZ7bxCRfb5KfZvvFiLi4wbBLIGPD93oeDxkjM1YO5W6ku3D8QGBZgQtFxGt6yLTzfuT/0vEjSJe1qv36W0dEukybJPy/baPfRMQdane2EW0/H839oB7OX8rb+74yIjzgZ0SdRVEXE8izkN/XweST2XTeS38o9yNfTKvsqzLAvbADe4nDuBKHl0qQTzHQ8gTBJ0bE7zoYK3l9v3v7n4LfL6sgkCe43D8iPlzwBLR8V5u3tc0Tnc68Cohz1PESa49k/VIHAc3kP67Jf6O98lrzA+boT6uw6ukj4hbrJwr+stDYOT4iPrB2qfR9IuJ8q4CojgSmCeS79DutZ92vWnugyPsj4qsR8T9bDLo8WSefNpbP+H5HRLwoIh4dEddZ+/wsT2qz7C6Qt/o9ZgvLjeDv+zgn7dLt9tv1+/vv3oP8Za+IyDtmZqzJmJOxJ2NQxqKtTiDM2JUxLGNZxrQ8opB3YdwPJQECBLoSuOXI739eepKzvZ2TnXyH6ryArkan/RAgQKCSwF0jIk8wMukxmKcP5Dvae1fqkzZLgAABApUF8vyKeYK+dXlN9oGHVe6jNk+AAAEChQUOM/lLfgr1gaetfe69R+H+aXMECBAgUFggA/WzCwX+yXeDfl/dIwR5maCb0xQerDZHgACBUgL5QJ+8mYiJmkGNPvAmV9mUGqq2Q4AAgXICp4mIw03+kp/KfeC9EbFvuW5rSwQIECCwjEAG5LzWuMa7PtvkOtkHPuEx2ssMV68lQIBAGYG8Ocl7TP6Sn477wMfXbmyTt5W2ECBAgEAPAnnCX95hbPIdWhe/b3Xnsy72ax/9tPdW7vmRkxMDexj4dkmAAIEn9TT5/2D9tssXW7+96Y96KsdWk9Kq/C0fUpMnfF5j/fa0fT3G9nmGIQECBAh0K3C/nibdN2/xdMX8GOJmEfFOdx2sfjQm7z2fd+ibfNBVPr0uH4LVRwLkZkHdjn17I0BghQVuvc3DR2oG/3yQ0N1mMD9DRFwqIm4QEfdaP0Lwuoh4d4df+fl0aYsvR8SRHX7l2fb5wJmcXPMhWX8VEeefwT8fNpNPxCxd/2nb+7sZymYVAgQIEFhC4GoRcWzHAf4bEXHxJcrc9UsvW8HnSl1XYon9XaiHxz7nA4SutUSZvZQAAQIEdhA4V0Tk5+/T3o2V/P8HR/j40lVPALILnTEi3tVxX/lZRFxgh/7rXwQIECCwgEDe5e+jHQf0F0dEfr4/tkUCcHKL5Rn6Xd8W+tMRkTelshAgQIBAIYFndDj55+ODH1Co3H1sRgJwSvX7rJ1LcEKH/ScTRwsBAgQIFBC4bYfBO0/2u3GBMve5CQnA7voHR8SvO+xHs5wwunsp/YUAAQIEdgnkGfW/7Shw537yuvKxLxKArVswT2TsKgn4Q0RcYeti+CsBAgQITBPIE7nyDPySJ/Vtt63fR8RB0wo0kv9LALZvqKtGxG866lNHb3HPiO1L5j8ECBAgsEvgJR0F6ny3dt1dex3/DxKAndsw7ynQ1VGlN+xcFP8lQIAAgUmBG3Y0+R8XEbmvlhYJwPTWzKM9eTvh7Y4Ilfx7nsNiIUCAAIEZBM4aET/sIDjnzVtuOkN5xraKBGC2FrtOROTRn5KT/Vbb+nlE7D9bkaxFgACB1RbIW+duFUhL/i0vC7tVo8wSgNkb9vod3VnyHbMXyZoECBBYTYG8z3/JiX67bbV8mZYEYL6xc4uOni3Rcp+bT9zaBAgQmBDIW/3m7VS3m7RL/f05E/tt7VcJwPwt+pgO+l1egnjB+YvmFQQIEGhf4G0dBOEPj/T2vvO0vgRgHq2T191z7br9t3fQ//LZEnvMXzyvIECAQLsCt+wg+H4nIs7RLuGumkkAdlHM9cOZOrrvxF3nKpWVCRAg0LDA6SIiJ+dSh/i32k7e6OfyDRturpoEYLPGfD9fsoO7Bf4kIs48X7GsTYAAgTYFuvj89Y4L0OXT5K4SEfkwmZetXTL4xYj40Qi+apxH8e2IOGoEX/kRz9MjIts7J/NFDrffpIOTAp+1QH/0EgIECDQlcJEOrsXOCWHeJSePfLTrVkcT/G08Lu9f8MS7Qyu3fV6Geul5O6X1CRAg0JLAv1cOtDkB5Dv5WZdc9587SEokEd0lEXn2/T1m7QDr6+WRg9onpX5ozjJZnQABAs0I5E1Yak6E31/gYSzPrFymmvW17Z370+PmHDl5UuB/Ve4Pt5mzTFYnQIDA6AX2joj/rBxc573H/9U7+OzXJL3zJF3TJw+75yOB51n+unKf+F5E7DtPgaxLgACBsQs8pPLk/8o5gfJKhNoJSc3JzbZnSyzyRMZ95uwbz6vcVx8/Z3msToAAgdEKnK3yM9nzQUL7zanzgMpB3gQ92wTdhVOe4zHPcoaIOLpi/zg2Is4/T4GsS4AAgbEKPKFiMM0JJC/jmnd5c+UydTGx2cdsSUaeeDrvct3K/eP58xbI+gQIEBibQO13//+2IEjtGxGZnGebnLtwyiNEiyx5L4ha5XMUYJEW8RoCBEYlUPPd/48jIhOMeZdzVgzstSYM211uMj7PvJ1k/e59P6jYVxwFWKBRvIQAgXEI1H73n491XWTJs/9NqKtlcK1FOkpE3KhiX3EUYMFG8TICBIYvUPPd/xFLVP+aFYO6xGLvB2VgAAAT5klEQVSYicX1lugv76jYXxwFWKJhvJQAgWEK1Hz3/8eIuNwS1ZYADHOSrpk8LZMAHBAReU+BGuVzFGCJgeylBAgMU6Dmu/95r/mfFJIA1JnMakyQpba5TAKQ/edFlRKArJ+jAJMj1O8ECIxWoOa7/3zM77LXUEsAJADzDq79I+KYSkmAowDztob1CRAYrMBhlQJlvlvKIwvLLhIACcAifejRFfv1sxcpkNcQIEBgSAJ5z/+8PK/UodvN28nn3ucDW5ZdJAB12mdzWw3t52U/Asg+d/qI+FGlvp1PMMw7EFoIECAwWoE7VAqQOaHct5CKBEACsGhXumfF/n3vRQvldQQIEBiCwJGVAuQ3I2KvQhWUAEgAFu1Kp4qIr1bq47ldCwECBEYpcIVKgTHf/d+yoIgEQAKwTHc6pGI/P2iZgnktAQIE+hJ4eaXAmO+M9ihYqVVKAI6PiE9HxFsi4rlrt05+TkTkg5A+GRHHVWqvoX3+n+UpcQ7A5i74uUp2b9q8Ez8TIEBgDAJ56d8fKgXFuxUGWIUEIO+UeKeIOMsOdnlC5e0j4t2V2m1IiUDpBCDdatQvbzh03h3azL8IECAwOIEHVwqIeUXBPoVr23ICkO/2FzmMfI2I+ESlNqwxUc67zdIJwKkj4ruVvB5TuL/bHAECBKoJ5IlRR1cKho+oUOpWE4C8ljzbYtFlz7VL3Z5SqR3nnbBLr186AUjjB1SyyqQ3L6e1ECBAYPACN6kUCH+34ON+p4G1mADcZ1ql5/j/3Su1Z+lJfZ7t1UgAzhgRv6pkdbs52suqBAgQ6E3gvZWC4PMq1ai1BCDftZde8jD0PBPs0NetkQCk+VMrOX2sdIPaHgECBEoLnCsiTqwQBPOJfxcrXdj17bWUAHxgycP+2xHnVRfvqtCufSUKtRKAfC5FXmlRo14X2q5x/J0AAQJDEMhDzzWC31srVq6VBCATr0tXdMoErNbkVqPP7LTNWglA8r+20hjIE2stBAgQGKzAxysFvzwrvdbSSgKQ912oveSjaneaWMfyv5oJwIGVjL5Yu3FtnwABAosK5OHPPFRfehLIS9lqLq0kAFesibS+7ctWaN/S/WWW7dVMAJLqg5WcLtlBG9sFAQIE5haodRlU3mSl5tJCAvD9wndH3Mn7vytNbrNM3KXWqZ0A3KiS0aE7NYz/ESBAoC+Bz1QIer+JiNNVrlALCcBLKhtt3vy/VmjnUhP7rNupnQDkjYF+WsHpPzc3hJ8JECAwBIGLVgh2Gcxf1UHlWkgAHt6B08YuHliprWedvEusVzsBSKt81kKJsk5uIx+yZSFAgMBgBB5WKdgd3EENW0gA7tqB08Yuat33fnKiq/l7FwnAVSqNiRr3edhoW98JECAwt8CXKwS7PISah1JrLy0kALepjbRp+7Xu9Fhzwp/cdhcJQJJ9q8K4yGcOlHwa5qam9SMBAgTmE7hUhSCXATsPoXaxtJAA3K8LqPV9/H2l9p6cpGv+3lUC8NhKVjUvi+2wK9kVAQJjF6h1m9irdgTTQgLwpI6scjd5JnrNybmLbXeVAORlezXqkydiWggQINC7wOcrBLlvd3iYs4UE4EMd9oJ3VmjvGpPkTtvsKgHIZqkxPvJjAAsBAgR6FThHpZv/PL7DWrWQAJwQEWftwGzfiPiDBGAu6Vr3x/jzuUphZQIECBQWyMeU7vROa9H/1byn/SRBCwlAOudje2svt6rU3ov2k0Vf1+URgPNWekDWfWs3tu0TIEBgJ4G8//yiQXi7131ppx1W+F8rCUCecb53BZ+NTZ4qIr5Sob236wc1/95lApB+NW4N/LaNhvGdAAECfQjkLWhLB+qHdFyRVhKAbIeaVwPco0Jbl+47s26v6wTgbhXs8i6Ze3U8VuyOAAECJwkcUCGoZQC/YMe+LSUAx0TEZSr4XSIifl2pvWedtEuu13UCcOaIOLaCn8sBK3R2myRAYLpAvtssGZRzW10f/s9atpQApGE+rOds05tv5jXOEhF5D/rSbd3n9rpOABL7/RUM8xJcCwECBDoXqHE52NM6r0V7CUBOrF+PiIsXsLxIRNS4y2Ofk3/uu48EID/aKl3vTxZoY5sgQIDAXAJ5slkebi4d0K4/VynKrNzaEYCNNvmfiMiz9hddbhoRP6/Qxhvl6/N7HwnAX1awPDEi8giNhQABAp0J1Jg0j4uIvM6866VGXfqc3Cb3/fG1w89XnwP1yhHx4QqT1WS5+vy9jwRgz4j4ZQXXW8zRtlYlQIDA0gKPqxDIctLpY2k9AdiYaPPuis9aO8/i5hFxxYg4X0TkNer/JyLy3f4zIuK/KrTrxv6H9L2PBCD79psr+L6wj0FjnwQIrK7ApysEsi6fab+55VYlARjSBNx3WfpKAO5VYdzkSZ8WAgQIdCJwxkp3NrtSJ6XffScSgPLncvQ9wU/bf18JwMUqJABZ1wvt3q39hQABAuUFDqoQxPKEtbzTXB+LBEAC0GW/+06F8bPMyZ5d1t2+CBAYucA/Vwhgh/doIgGQAHTZ/V5WYfw8ucsK2BcBAqsr8MYKAezePXJKACQAXXa/21cYP10+DrpLK/siQGBgAnk2+bTPWOf9f4mb1izKJAEo357ztn/X6/d1DkD20XNVGD95m+a8zNBCgACBagJnrxC88jPRPhcJgASg6/6Xt7wunfRcsutK2B8BAqslkHfqKx24XtozoQSgfJuW7iOlt9fnEYDs7k+vMI7u1PM4snsCBBoXeGSFwHW7ns0kABKArrvgDSuMo2d3XQn7I0BgtQTeViFwdf3438kWkwBIACb7RO3f96swjo6sXWjbJ0BgtQV+VDhw5fX/fS/52WnpQ8y2N2zTA/vudBFR+n4Af4iIvQZQL0UgQKBBgbx3fOmJ7SMDcMqzp39ToW6lrWyvTP8bykRZ42jaEBKbAQxpRSBAoLTAzSpMks8pXcgFt9f60+8kD/+bPHxywT5S+mWHVRhP9yxdSNsjQIBACjy+QsC6+0Bon1qhbibd/510h2Tx3IH0uXyMb2mXFw+kbopBgEBjAkdUCFj5KNohLJeKiGMr1K90gLe95SbN4yLickPocBFx0Qr97QsDqZtiECDQmMAPCgesEyPidAMyemjh+pmsl5usa/g9akD9bY8K555kEuuOgANqZEUh0ILA6StMjkcNDObUEfHZCvWsMZHZ5vzJxecGeJb8f1Tob31fVjuwYa04BAgsK3DZCoHqDcsWqsLr87BsHkY1wbZlkG2abTu05XkV+tq1hlZJ5SFAYNwCNU5YykPuQ1zyWupDI+L4CsFZYtFtYpFtmG051Ovj86z90n3i74c4qJSJAIHxCjykQqDK26EOebl8RLxo/YiAZKD8RFV64tvYXrZVvuPPtss2HPJypQrj6ilDrrCyESAwPoF8YM9GgC31PW8sNJbltBGRwfomvgZtkG2UbTWWZd+IyJNhS42p3M7hY6m8chIgMA6BvGNfySD1i3FUWykJVBf4RuGx9eXqJbYDAgRWSuCHhYPUB1dKT2UJbC+QJ8OWTK5/HxF5iaGFAAECSwvUuATwmUuXygYItCFQ4/4TY/p4rY1WVAsCjQrUuATwLo1aqRaBeQXyZNiSRwByW389byGsT4AAga0EblkhQF1tqx35G4EVFKhxS+ChPGNjBZtTlQm0JfAvFRKAC7VFpDYEFhbI22GXPgLwxIVL44UECBDYJFD6EsA/rj1Z8DSbtu9HAqsu8MvCScCbVh1U/QkQKCPw0cLB6adlimUrBJoRyEv3Sh4F+GIzMipCgECvAqUvAfTI0l6b084HKPCewgnAMQOsoyIRIDAygXy0aOk7lb1jZAaKS6C2QOmP2fJowplqF9r2CRBoW+Dshd+ZZGB6YdtkakdgboHDKoyzP5u7FF5AgACBTQKXqBCYHrlp+34kQCAin+BX8hyA3NZVwBIgQGAZgWtUCEx3W6ZAXkugQYFDKoyzGzfopEoECHQocPMKgengDstvVwTGIHBghXEm0R5DyysjgQEL1Dg0+RcDrq+iEehD4JwVEoC8gZeFAAECCws8vEJg2m/h0nghgTYF8ul9xxUea09vk0qtCBDoSuBZhYNSPqrUQoDA7gJHFx5rr959F/5CgACB2QVeWzgofXP2XVuTwEoJ/EfhsfbeldJTWQIEigu8r3BQ+nDxEtoggTYE3lh4rH2+DRa1IECgL4G8bW/J65PziIKFAIHdBZ5ReKx9b/dd+AsBAgRmF/h+4aD05Nl3bU0CKyXwwMJj7diV0lNZAgSKC2QQKXkE4H7FS2iDBNoQuF3hsZbj1vMA2ugbakGgc4EMHiUn/9zWHTqvhR0SGIfAtSuMN88DGEfbKyWBwQlcpEJAusXgaqlABIYhcLUK483zAIbRtkpBYHQCV6oQkG4wOgUFJtCNwOUrjDfPA+im7eyFQHMC16oQkA5qTkmFCJQROKDCePORW5m2sRUCKyeQ79ZLnwNw5ZVTVGECswlcuMJ4u8tsu7YWAQIETilwswoB6XKn3IXfCBBYF9i/wnj7B7oECBBYROC2FQLSny9SEK8hsAICZ64w3lx2uwIdRxUJ1BC4c4WAdIEaBbVNAg0I7FNhvD2oARdVIECgB4F7VAhI5+ihHnZJYCwCfyw85h4xloorJwECwxK4T+FglCcUnnFYVVQaAoMS+F3hMffYQdVOYQgQGI3AAwoHo0wA9hpN7RWUQPcCPy885p7SfRXskQCBFgQeWjgYndACijoQqChQ+uFbz65YVpsmQKBhgUMLJwDHNGylagRKCHyz8Jh7YYlC2QYBAqsn8MTCweinq0eoxgTmEvhS4TH38rn2bmUCBAisCzyjcDD6DlkCBHYU+HThMfdvO+7NPwkQILCNwL8WDkZf32Y//kyAwMkCHyk85t4MlgABAosIvKRwMPriIoXwGgIrJPCewmPuHStkp6oECBQUeHXhYHRkwbLZFIEWBQ4vPOaOaBFJnQgQqC/wxsLB6IP1i2wPBEYt8LrCY+6jo9ZQeAIEehP498LB6F291cSOCYxD4GWFx9ynxlFtpSRAYGgCpY8A5EcKFgIEthd4auEE4GPb78p/CBAgsL3AwwoHo3/cflf+Q4BARNy+8JhzJ0DdigCBhQQOLhyMrr5QKbyIwOoIXKzwmLvT6tCpKQECJQXOWTAYnRgR+5YsnG0RaFBgj4j4VcFxd8kGjVSJAIGOBD5eKBi5HrmjBrOb0Qu8otCY+1pE7Dl6DRUgQKA3gYtGxG+XDEi/jIjz9lYDOyYwLoGzRsSPlhxzecTtyuOqttISIDBEgfssGYzuOMRKKROBAQvceMkx95QB103RCBAYkUB+LrnoXQHzeQIWAgTmF3j6gklAfmx32vl35xUECBDYXuDWEfGzGYPSDyLihttvyn8IEJhBIMdQjqU/zfD1h4h4UEScaobtWoUAAQJzC+SVAXmS0ve2CUhHR8QLImK/ubfsBQQIbCWQYykfzPXTbcZcnqPzvog4YKsX+xsBAgRqCJwrIg6JiH+KiLxnwNlr7MQ2CRDYJXDBiLjl2tn9h0bEXSLi0t7x77LxAwECBAgQIECAAAECBAgQIECAAAECBAgQIECAAAECBAgQIECAAAECBAgQIECAAAECBAgQIECAAAECBAgQIECAAAECBAgQIECAAAECBAgQIECAAAECBAgQIECAAAECBAgQIECAAAECBAgQIECAAAECBAgQIECAAAECBAgQIECAAAECBAgQIECAAAECBAgQIECAAAECBAgQIECAAAECBAgQIECAAAECBAgQIECAAAECBAgQIECAAAECBAgQIECAAAECBAgQIECAAAECBAgQIECAAAECBAgQIECAAAECBAgQIECAAAECBAgQIECAAAECBAgQIECAAAECBAgQIECAAAECBAgQIECAAAECBAgQIECAAAECBAgQIECAAAECBAgQIECAAAECBAgQIECAAAECBAgQIECAAAECBAgQIECAAAECBAgQIECAAAECBAgQIECAAAECBAgQIECAAAECBAgQIECAAAECBAgQIECAAAECBAgQIECAAAECBAgQIECAAAECBAgQIECAAAECBAgQIECAAAECBAgQIECAAAECBAgQIECAAAECBAgQIECAAAECBAgQIECAAAECBAgQIECAAAECBAgQIECAAAECBAgQIECAAAECBAgQIECAAAECBAgQIECAAAECBAgQIECAAAECBAgQIECAAAECBAgQIECAAAECBAgQIECAAAECBAgQIECAAAECBAgQIECAAAECBAgQIECAAAECBAgQIECAAAECBAgQIECAAAECBAgQIECAAAECBAgQIECAAAECBAgQIECAAAECBAgQIECAAAECBAgQIECAAAECBAgQIECAAAECBAgQIECAAAECBAgQIECAAAECBAgQIECAAAECBAgQIECAAAECBAgQIECAAAECBAgQIECAAAECBAgQIECAAAECBAgQIECAAAECBAgQIECAAAECBAgQIECAAAECBAgQIECAAAECBAgQIECAAAECBAgQIECAAAECBAgQIECAAAECBAgQIECAAAECBAgQIECAAAECBAgQIECAAAECBAgQIECAAAECBAgQIECAAAECBAgQIECAAAECBAgQIECAAAECBAgQIECAAAECBAgQIECAAAECBAgQIECAAAECBAgQIECAAAECBAgQIECAAAECBAgQIECAAAECBAgQIECAAAECBAgQIECAAAECBAgQIECAAAECBAgQIECAAAECBAgQIECAAAECBAgQIECAAAECBAgQIECAAAECBAgQIECAAAECBAgQIECAAAECWwn8f72PHdJoQ2U/AAAAAElFTkSuQmCC;" vertex="1" parent="1">
          <mxGeometry x="199" y="50" width="98" height="98" as="geometry" />
        </mxCell>
        <mxCell id="vD54dHwGd8fO52R0_b3Y-2" value="" style="shape=image;verticalLabelPosition=bottom;labelBackgroundColor=default;verticalAlign=top;aspect=fixed;imageAspect=0;image=data:image/png,iVBORw0KGgoAAAANSUhEUgAAAgAAAAIACAYAAAD0eNT6AAAAAXNSR0IArs4c6QAAIABJREFUeAHt3Quw/Wtd1/HP4cDhjoKIl0AkyzAuMhT3mVRAzbQEnRFFj6E5DgrCBEYU0EViImggKSOcQKFQIdRCMsRQpsG0AEMhbiKKlAjEVUDutr6c/Wf9OWf/99p7r9/vt57f87yemTP/ffZa6/d7nvf3/X2+370uv5UYCCCAAAIIIIAAAggggAACCCCAAAIIIIAAAggggAACCCCAAAIIIIAAAggggAACCCCAAAIIIIAAAggggAACCCCAAAIIIIAAAggggAACCCCAAAIIIIAAAggggAACCCCAAAIIIIAAAggggAACCCCAAAIIIIAAAggggAACCCCAAAIIIIAAAggggAACCCCAAAIIIIAAAggggAACCCCAAAIIIIAAAggggAACCCCAAAIIIIAAAggggAACCCCAAAIIIIAAAggggAACCCCAAAIIIIAAAggggAACCCCAAAIIIIAAAggggAACCCCAAAIIIIAAAggggAACCCCAAAIIIIAAAggggAACCCCAAAIIIIAAAggggAACCCCAAAIIIIAAAggggAACCCCAAAIIIIAAAggggAACCCCAAAIIIIAAAggggAACCCCAAAIIIIAAAggggAACCCCAAAIIIIAAAggggAACCCCAAAIIIIAAAggggAACCCCAAAIIIIAAAggggAACCCCAAAIIIIAAAggggAACCCCAAAIIIIAAAggggAACCCCAAAIIIIAAAggggAACCCCAAAIIIIAAAggggAACCCCAAAIIIIAAAggggAACCCCAAAIIIIAAAggggAACCCCAAAIIIIAAAggggAACCCCAAAIIIIAAAggggAACCCCAAAIIIIAAAggggAACCCCAAAIIIIAAAggggAACCCCAAAIIIIAAAggggAACCCCAAAIIIIAAAggggAACCCCAAAIIIIAAAggggAACCCCAAAIIIIAAAggggAACCCCAAAIIIIAAAggggAACCCCAAAIIIIAAAggggAACVxG4VpJ7JXlSkl9J8oYkH0jyp/7DgAMc4AAHGnCgalLVpqpRVauqZlXtMs5J4HpJfjjJHzUQXM2GhosDHOAAB87iQNWuqmFVy4wzELh/krcq/Dp7DnCAAxxYuQNVy6qmGTsIXJbkn6w82GfpEN3XXxQc4AAHxnCgalvVOOMYAgXmeYq/bp8DHOAABzp1oGqcJuCYBuCfdhpw3f0Y3b04izMHOHAaB6rWGRcR+DbFX8fPAQ5wgAODOFA1zzh6h+TbBgn6abpD9/FXBAc4wIG+Haia59MBSf6O4q/r5wAHOMCBwRyo2jf0qAsl+Jx/352uv2TElwMc4MA1HajaN/TFgupqScTAgAMc4AAHRnSgauCwoy6ZOGLQrVncOcABDnCgauCwo66bLAkw4AAHOMCBER2oGjjsqC9PGDHo1izuHOAABzhQNXDY4Vv9JIBNkAMc4MCoDlQNHHaMGnTrtuFxgAMc4EA5MOyQABKAAxzgAAdGdkAD4L0A3gvBAQ5wgAMDOqABGDDoI3e81u4vPg5wgANXOaAB0ADo/DnAAQ5wYEAHNAADBl336y8gDnCAAxzQAGgAdP4c4AAHODCgAxqAAYOu89f5c4ADHOCABkADoPPnAAc4wIEBHdAADBh0nb/OnwMc4AAHNAAaAJ0/BzjAAQ4M6IAGYMCg6/x1/hzgAAc4oAHQAOj8OcABDnBgQAc0AAMGXeev8+cABzjAAQ2ABkDnzwEOcIADAzqgARgw6Dp/nT8HOMABDmgANAA6fw5wgAMcGNABDcCAQdf56/w5wAEOcEADoAHQ+XOAAxzgwIAOaAAGDLrOX+fPAQ5wgAMaAA2Azp8DHOAABwZ0QAMwYNB1/jp/DnCAAxzQAGgAdP4c4AAHODCgAxqAAYOu89f5c4ADHOCABkADoPPnAAc4wIEBHdAADBh0nb/OnwMc4AAHNAAaAJ0/BzjAAQ4M6IAGYMCg6/x1/hzgAAc4oAHQAOj8OcABDnBgQAc0AAMGXeev8+cABzjAAQ2ABkDnzwEOcIADAzqgARgw6Dp/nT8HOMABDmgANAA6fw5wgAMcGNABDcCAQdf56/w5wAEOcEADoAHQ+XOAAxzgwIAOaAAGDLrOX+fPAQ5wgAMaAA2Azp8DHOAABwZ0QAMwYNB1/jp/DnCAAxzQAGgAdP4c4AAHODCgAxqAAYOu89f5c4ADHOCABkADoPPnAAc4wIEBHdAADBh0nb/OnwMc4AAHNAAaAJ0/BzjAAQ4M6IAGYMCg6/x1/hzgAAc4oAHQAOj8OcABDnBgQAc0AAMGXeev8+cABzjAAQ2ABkDnzwEOcIADAzqgARgw6Dp/nT8HOMABDmgANAA6fw5wgAMcGNABDcCAQdf56/w5wAEOcEADoAHQ+XOAAxzgwIAOaAAGDLrOX+fPAQ5wgAMaAA2Azp8DHOAABwZ0QAMwYNB1/jp/DnCAAxzQAGgAdP4c4AAHODCgAxqAAYOu89f5c4ADHOCABkADoPPnAAc4wIEBHdAADBh0nb/OnwMc4AAHNAAaAJ0/BzjAAQ4M6IAGYMCg6/x1/hzgAAc4oAHQAOj8OcABDnBgQAc0AAMGXeev8+cABzjAAQ2ABkDnzwEOcIADAzqgARgw6Dp/nT8HOMABDmgANAA6fw5wgAMcGNABDcCAQdf56/w5wAEOcEADoAHQ+XOAAxzgwIAOaAAGDLrOX+fPAQ5wgAMaAA2Azp8DHOAABwZ0QAMwYNB1/jp/DnCAAxzQAGgAdP4c4AAHODCgAxqAAYOu89f5c4ADHOCABkADoPPnAAc4wIEBHdAADBh0nb/OnwMc4AAHNAAaAJ0/BzjAAQ4M6IAGYMCg6/x1/vs48CdJXpfk5UlenOQ/JHlWkqcleUKSRyd5SJK/meRbknxtknskuX2SWyf5vCRXHP1XP9fv6ra6T923HlOPrWPUseqYdew6R52rzlnnrjnUXPZZi8fiN7IDGgAbiA2UA9dw4ONJ3pTkRUmemuQHN0X3vkfF+loN7Ro1l2ogam41x5przbnmXmsYeXO3dvHf5UBDqbzsVHaBcbvk6d2BT27+0v69JC9J8q+SPDzJX0vy55Jce9l0nOVstYZaS62p1lZrrLXWmmvtvcfX+sR4lwOzJN4aDroLjNslT28OvHPzVPsLkjw0yR2TXHcNiTrTHGvtxaBYFJNi01u8rUdMdzkwU3q1f9hdYNwuedbuwMUFv15jv6z9tDzYDItNMdIQyPu15/1Z5n+whDv0ic8CyX1tCmtwQMGfblfREMj5NeT8vnOcLmNWdqR9wXm8DeLQDij4y206GgL5fuh8n+P8y2VQY2eaA6Zj2iTmdqCK/r/cfBTu7p7SP+iOUg1BxaBiUTGZO+6Oj/EcDhw0iQ558jlgOqYkncOBDyX5qaN3s/fw7vxD5v0c566Y1CcNKkYVqzkccExc53BgjnxYxTHngOmYknQqBz5xdMGbK5PcaBUZZZJFoGJVMauLFVUMp/LBcbCcw4Fhs3YOmI4pSfd14BVHn1n/gmEzs5+FVwzr+gMV03298HgM53Cgn2w740rmgOmYkvQ8Drw5yY9snkL+8jM67O7rIVCxrRhXrM/jiMfgNocD68mgiWc6B0zHlKSndeBjR9e2r+vfG2MRqJjX9xqUA6f1xf2wmsOBsTLvotXOAdMxJekuB+pNYv8iya0uctGPYxIoB8oFbxy0b+zaN+a6fczM03n7y2NhB96b5PGb69HffNiMs/BLESgnyo1yZK6N3nGxPc6BSznZ/e+Pg+F3kmRqB96e5FFJbtx9RlngvgTKkXKlnJnaQ8fD9DgH9nV2tY8/DobfSZKpHHhLkgcnud5qM8TED0WgnCl3yqGpfHQcLI9z4FCOH/y8x8HwO0myrwOvSfKdm6d0Lz+44SawdgLlULlUTu3rpcdjeJwDa8+Rc8//OBh+J0nO68CvJ/kbLs977nz0wEsTqMsOl1vl2Hn99DjsjnPg0tZ1fstxMPxOkpzVgd9Kcu/Oc8Xy2iFQrpVzZ/XU/TE7zoF2zF54JsfB8DtJcloH3pfkYZ7qXzhrna4I1EsD5V45eFpf3Q+r4xwYNqOOg+F3kmSXA59K8uwkLtU77NbRzMLLwXKxnNzlrdsxOs6BZmReeiLHwfA7SXKSA69Ocq+lRXU+BHYQKCfLzZPcdRs+xzmwQ61+bz4Oht9JkuMcqKdaf8jT/f1uBh2srF4WKEe9LGAPO24Pu9TvOlD/fEu4FBC/l0AXHKinVn8yyS3Op5hHIbA4gXK1nPWygH3swj520r+LC9rKCU+C4jbJ4+n+VjLVPM5DwMsC9rDT1LHzuNXFY04Dx33GS6K6Hrun+7tI8eEXceFlAd8xMN4+dtraNWySnBaQ+42TPP/e0/3D7gc9L7xeFii37WUYXN2Bnr0/cW1XB+H/x02OD26uu/7dJ9riRgTWT6AcL9ftdRhccGD9Vp9zBRcA+HfsZPjtJLc9p0MehsDaCJTr5bx9D4NyYNghASTAM3xb3175f4Mkd9wUlG9J8rc232f/8CSP3TB9YpIfS/Kcze0/t7l2wi8fXcf+tUl+f/Mei3cn+ejRf/Vz/a5uq2vd133rMfXYOkYdq45Zx65z1LnqnHVu43wE6tsGy317IAbnM6iDR5F/XPnfn+QBHTi8xBKuneTLk3xjkr+9uQLi05O8dFOM33bgj5rVx9xqDjWXmlPNreZYc605G7sJVA5ULtgLx2Ww25JO70H6MaV/VZIv69TpfZf1F5N8f5KnJHlRkjcl+fgKC0TNueZea6i11JpqbcY1CVQuVE7YD8dkcE0jBvkN4ccT/mlJrhjE713LrK+YvV2Sh2yK4/OTvGOAIlBrrLXWmmvtxcC4KicqN+yJ4zEY1n+yjyN7fQ76/sOaftXCq9jdPslDN/++IMk7bfifZlAsikmxGb0hqBxxzYBx9sWqgcMODcAYov9GklsPanm947suavSzm79636Xg7/wLtxgVq2I26idDKlcqZ+yPYzAYdGscI7gjJ3G9SezJSa4zmOFfePSGOK/r7p/jxbDeXFhMRxqVM5U7vk9gf4da34NH8vqz1tp6YMzv/Mn34STf/FnR7vt/bpTkyiS/tPnI3Cf89Tb5X6/FtNgW42I9yqgcqlyyF/XLYBSXr7FOUvcp9XuS3PMa0e7vF/VRt29I8twkH7JJL1akinUxL/YjfNywcqmu1WC/7JNBfzvjKVdE6P6Ers+F17u7ex53SfKjg7xrv/UcrU8VVCwqJj2P+gjlH2gCumyCevb2xLW1vrmY39kalNcludWJEV/vjdc9+iz7623CzW7CFZu63kDFqsdxyyT/m3/N+nfeetGjq6da03mBedzZCvMSvOoSsjc7VdTXdacbb7685Yc3heUPbbyr2XgrVhWzil1v46ZJfo2Lq3HxNHtvb46eej2ngeM+7RX7q8fkP3d4XfjPT/L4JPV+hquv1/+vg0nFrmJYsexpXD/JC3nZTV725OaZ1mIjXcdGelKcnt3ZG7G+ZPNMRl2RzZv61u/mBW8rlhXTim0v4/LNy23P1AR00QT04uSZ13EhQf27zs32SR1dua3eZFXNzBqvuy9/Tpc/FduKcU/fSfAETcDqm4AzF85eHmDjOt3G1RqnujjJIzqRsN49/h9dcGX1m+hZcqT8rZj38smBumriJzUCq3W4k6307Ms4S9K6bxvNwseSfNfZQ93cI26xuTzxTyj8q900p9gPqhEoB8qFtY/6WuGPagJW6fPa3Tv3/KdIYsdYrjH44OYa5X/13NFu44H12ml9E50vXFnOm9ZztFwoJ8qNNY/7bJ6Z+4AmYHVNwJqd22vurW8M5rctEh9Jcq+9on34B98jyW/aIFe3QS6Vh+VGObLmcVeXDl6d32v2ba+5L5XYzrMt5Odl8aC9In3YB9fHwJ7l6f7VbYzndXWfx9XLAuXKmj86WC/R7cPAY5fld9jd8YBnJ9qyop2Xd32Eao3jWkl+0Gf5FYNzFMS6hkC5Uw6tcdTlkc+b7x63LLs1+jXJnIm2rGjn4V3fz77GK6rdPYmv423fr/M4ueRjyqFyaW2jcrZyd0lWznU+3mtza7L5EuZ8wizJbW0f97tJkn/r6X4b/4TFr14WKKfKrTWNyt0l9wrnOh/vNTk16VwJcz5hluJW7yi+3qQRn/dgf2nzEcU32/Rs+jM5UG6VY2sZlbs+FdD2Hlt7+bBjqULmPOdLghesyMyH+Ry0wj9T4b94/6jP2pdraxmVwxfP38/t8ViLS5PPk4ztyXhxTL538ohPf8D6drS6qtvF8/YzHnM7UM6Ve62PyuG5WTj+foxbd2i2+RFnP3Hm5neH2SI/zYHrM9tvtcHZ4A/kQLnX+nUDKofn3iccfz/G0+yGKzwKcfYTZ25+n9eoU5dtLnbyKF/cY2NvoLjVFwyVi+Vki+PmDTCae59a+/Fb9GaROa09cD3Pv17rbHFTqw3tF21qin9jDpST5WZro3LYdwS0/YdWa84sNp+eC+ja11Z/2bR2EZSvSvJ/G9v41x5n85+uOJSb5WhLo3LYV1xPF+M58qUlXxadyxwwHXM62b9gURtOPtnfS/IJxd9f/o07UI6Wq62MymF7YtsMWnFl8XkQs20x77y4Edc8Yf0F83Sb2M5NvC5d+z+T/NTmW+0ev/m2w4cn+b4k357km5J8dZK7JPmKJLc6egf7dZLUf/Vu9vpd3Vb3qfvWY+qxdYw6Vh2zjl3nqHPJ3ZMZlLMtPINWOSxWbTO45q43yG+I2baYP3RgD6+bxOeYt468O8nLk/zk5tmQxyb5jqOCfYiPo9U5q1moOdRcak41t5qjvL6KQblbDh9yVA6LR9sMDunHQc9NzLbFfPEB7ficzV+iLxt886orz1Vhrb/Cb9vomzKvrki96azmWnOuuY9+ZcZyuFw+1Kgcts+2zeBQbhz8vMRsW8yPJPncA1jyRUlePdjGVW/UesWmWDw1ybcm+cIDcJ/rlLWWWlOtrdY42pvSyuVyeulRuVs5bJ9tm8HSXjRzPmK2LWbF5wkL2/Lnk7xlkE3r/UmevSmK35jkhgtzPuTpaq215lp7MRhhHyiny+0lR+XuCGzXvsYlnWjqXGsP3Ajz/+DmTXhLfRrgL2++g/2dnW9af7wpBM9N8s0NvD7cwmZQr5EXi2JSbHrOqXK7HF9iVM5W7vbMs5e1LeFDk+foJYC9r+P5C9jzdR0XgA8lKYb1NPj1F2C51lMUm2JUrIpZj3lVTU65Pvd4Xqf8enRibheaPX6Pwex1TY+b0aIHJvlYhxvWryZ5wGBP70+lSb1MUOyKYW85Va6X83ONug5Bb8x6Xs9cHjR/3J6D2tvaPpXkyhmMemSSOnYvvOoNbvV5+TV9b/wMYZ30kMWymPb05sFyvtyfelTT9MmO8qmXfeGkdUztwGqOdxIUt7VZFOuCMFN8R8AVm4vPPLOjjarezPbPjy6os5oEXNlE62JFxbinNw5WDlQu7DsqJ/9RZ830KDVg39iv9vGjBLi3db5w8w7u2+xh3Vcm+bVOin99JewjktxkDx4eejYCxbqY9/JV0JUL+3z19pcm+U+d5FNve+Vp1nM2+zu692nguE+bzwTU65h1udOzNAJ3OnqDVw9P+b/m6FK51+4oH9e2lGJflyuuWKx9n6in7euTEHURpdOOP5Pkab7tb/WxP228u7vf2pPW/K/aeH/r6Frxf/3ote/amL4kyd2S3H/z1/FTOroi3LuSPHiz3su7y8b1LqhiUTGp2PSQk6/fvHH0yUe5UzlUuVQ5Ve+FqBz7kc13NbzS0/1dxLp8HXb0kKzW0MemuyuO9YxHNTKHuDLisBvEGRdesakY9fiJkl1+un29+9AZNe/n7qRdr7Qjxe5FSf5CP2nX/UoqVhWzkRy11vXGu/uEvNQCSbteaUeI3euSfP2l5PX75glU7CqGI7hqjeuNc/OJNNcESbteaXuO3fs2X2tbX6PqDX5zZf5yx60YViwrpj07a23rje9y2dDYmUi7Xml7jd1/33yNbX2syuiLQMW0Yturt9a13tj2lWlnWA1p1yttb7Grj2HVRY781X+GBF7ZXSu2FWNXyrPvtLR/rSyNpptuS0Ewl3E3hbdtrjn/VdNp7UiNE6hYV8zlPAYtONB4usw3vRbgm8PYm8DPby6mcrP5FHfkRglUzCv28h+DQzvQaIrMP61Dg3f+cZP/w0cXj5nfcmdomUBdQKhcsBdgcCgHWs6PWed2KODOO3ayvzbJ7WY128HXRKBcKCfsCxgcwoE15cqkcz0EbOccO8lf6ot7Js3hXg5WXzBUbtgfMFjagV5y6MzrWBq0842d3D890Vevnll0D1gFgfpa3nLEPoHBkg6sIjnmmOSSkJ1r7KSua8TXd6YbCJxEoBwpV+wXGCzlwEk+dn3bUoCdZ9xkrq8efmTXWWRxcxAoZ3r42mp7X/t73xz+ruKY5GxfzjXH6KNJHriKTDDJFgmUO+XQmnPA3NuPX4vuLzIncrYv51pj9IEk91nEYifpmUA5VC6tNQ/Mu/3Y9Zw/J66NnO3LucYYvSPJnU40b6wb63XtGya5RZLbJLl9krsluffRf/Vz/a5uq/vUfb1fYutIuVROrTEXzLn9uG1NG+wncrYv59piVE/Z3nOwPKpi/cVJ/kqS70nyhCQ/k+SVSd57ztey6/Xvemwdo45Vx6xj1znqXKM1COWUlwPsV3Psh4NtV9vlzgHTMcdO0u/f6tXtT/UXev31/g82zc5LDvQUdT0tXueuOdRcak69j3LL/oLB1A70njeXXN/UIB1v7OR84SVNW/cNN0hy/yRPTfKKJB9vsBDVnGpuNceaa825x1GO2WcwmNKBHvPkVGuaEqJjjZ2U9RWv9Tp2L+N6Se53dGGaD66w6NSc66I6tYZaSy+jHPN1wmPvNVPXml5y48zrmBqk442bmP/uzPa194C6Et03Jam1vH+FRf9S+VdrqTXV2mqNax+1lkut1e+xOasDa8+Hc8//rKDcX3JdyoGvP7eFh39gvfP+Hyd51wCFpdZYa601r3WUa5fy0O+xOasDa82Dved9VlDuL7mOc+BDSa67t43LH+C2m3fU/3iSPxmwoNSaa+3FYG2jXCvnjnPR73A5qwNr83+y+Z4VlPtLruMc+C+TGbnMgb46yS+c8+N5x61/zb+rjxsWi2KyplHOrZm7ubcTvzV5P+lcSdiOhGuOxdMntXK+g33lptC9TOG4ZOEsNsVoDaOcW3POmHs78VuD77PMkYTtSLjmWNRn0Vsen5/kGd49fqqCWe+wL1bFrOVRzq05Z8y9nfi17PmscyNhOxKuORYPm9XS8x/8OpuL9DwiyfsUizMXy2JW7Iphi6OcW3POmHs78WvR70XmRMJ2JFxzLB6/iK1nO0m9U/yNisTeRbIYtvgJj3JuzTlj7u3E72w7S0f3JmE7Eq45Fs9sKCfqHeI/qjhMXhyLaUuf9Cjn1pwz5t5O/BravpadCgnbkXDNsXj5stpe8mxfsbny3asVhtkKY7Etxi2Mcm7NOWPu7cSvBZ8PMgcStiPhmmPxic1f3Tc9iMHbk9YXxfhs+Pw+F+NDf+FTuVbOrTlnzL2d+G13kcF+ImE7Eq49Ft9+oNypYvCzisHixbCYH6rpK9fWni/m304MD7R1Hf60JGxHwrXH4lcOoPOfTfI7isHBimGxrxgsPcq1teeL+bcTw6X9beZ8JGxHwh5icd8Fzb5zkj9SCA5eCCsGFYulRjnWQ65YQztxXMrd5s5DwnYk7CEW9X30ly9g+dduPqP+AYWgmUJYsaiYzD3KrXKsh1yxhnbiOLe3zR6fhO1I2Essnjqz7Q9M8jFFoLkiWDGp2Mw5yq1e8sQ62onlnM42fWwStiNhT7F40EzWP9IX+DRdAOuLhSpGc4xyqqccsZZ24jmHr6s4JgnbkbCnWHw8yUMnzIC6HK0vf1mPq/86ybUnjP8PJCmnesoRa2knnhOquq5DkbAdCXuMxbOSXG/PlLhFkv9m819d8XtpkpvtGfsrjr6YqMfcsKZ29t49NV3vw0nYjoS9xuKtSb7nHG8OvNHmYi+P9UU+qyv8F3v87iSPTnLDM26R10py5ea/39X4rTr+F7vQ8s9n1LOfu7ccFHPrqzl5w+breB+X5E4npE89bfw1SZ6S5J02/242/3ccxbRie9JLA+VGOVKuyH8MlnLghC2p75uWAuw8kvliB96++Ya5X0/yc0nqZYJfSPIqf+0PUfTqa4Yr1hXzin05UC6UExc74mc8lnKg7yp/wuqWAuw8kpkDHOAAB1p04IQS2fdNLQbDnGwSHOAABziwlAN9V/kTVrcUYOeRzBzgAAc40KIDJ5TIvm9qMRjmZJPo0YH3JHl9kpcled7mI3JP23y2/TFH/9XP9bu6re5T9+2RgTWJa4sO9F3lT1hdi8EwJ5vEmh34aJL6DHxdEe+uSW6ZpD7PftZRj6nH1jHqWHXMOvaa2Zi7+LXowFlzs5v7txgMc7JJrM2Btx1dsOZ+Ser6BXONOnad4xlJ6pxr42S+YtaiA3Pla/PHbTEY5mSTWIMDr0vyqCR3OGCW17lrDjWXNTAzR3Fq0YEDpvBhT91iMMzJJtGyA7+T5LuS1NXqWhk1l5pTza1lduYmPi060EoeLz6PFoNhTjaJFh34vSTfu+NKdosn8NVOWFfZqznWXFtkaE7i0qIDV0ujcf63xWCYk02iJQfqtfYHJ6lvJFzLqLnWnL1PQC61lEutzmUteT35PFsNiHnZuA7twB8neXiS606edcsdsOZea6i1HJqn84tBqw4sl5GNnanVgJiXzeKQDrw5ye0by9V9plNrqTUdkqlz49+qA/vk1qof22pAzMtmcSgHXpzkpqvO6uMnX2uqtR2Kq/Ni36oDx2fMAL9tNSDmZbM4hANPbOzd/VNvQfVpgVrjIdg6J+6tOjB1nq3meK0GxLxsFks68MHNZ+m/bTVZu/9Ea62rzJgyAAAQIUlEQVS15iUZOxferTqwf0at9AitBsS8bBZLOfC7B76Yz6G2jrqIUK19Kc7Og3WrDhwqBw9+3lYDYl42iyUcqAJ484Nn4eEmUGvXBMi1JXKt5XMcLgMPfOaWg2JuNqY5HainwA95Gd8Dp/5nTl8MvBwg1+bMtdaP/ZlkGO2H1gNjfjamuRz4ztGS/YT1Fou5ODsutq07cEJq9H1T64ExP5vHHA78Rt9pfa7VFZM5WDsmrq07cK6E6eFBrQfG/GweczjwNT0k78RrKCZzsHZMXFt3YOJUWs/hWg+M+dk8pnbgf60nPRefabGZmrfjYdq6A4snWisnbD0w5mfzmNqBx7eSfA3Oo9hMzdvxMG3dgQZTcZkptR4Y87N5TO3A3ZdJrVWepdhMzdvxMG3dgVUm6xSTbj0w5mfzmNqBG0yROJ0eo9hMzdvxMG3dgU7TefeyWg+M+dk8pnTgfbtTYvh7FKMpmTsWnq07MGzStx4Y87N5TOnAG4bN9NMvvBhNydyx8GzdgdNnR2f3bD0w5mfzmNKBt3aWv3MspxhNydyx8GzdgTnyaBXHbD0w5mfzmNKBjya5bBWZeZhJFptiNCVzx8KzdQcOk20NnLX1wJifzWNqB27RQN61OoViMzVvx8O0dQdazcfZ59V6YMzP5jG1Aw+YPavWe4JiMzVvx8O0dQfWm7F7zrz1wJifzWNqB569Z870/PBiMzVvx8O0dQd6zukT19Z6YMzP5jG1A/8vyfVPzIoxbywmxWZq3o6HaesOjJnxkt1mN6gDjzpQxn9pkh9I8hNJfjHJK4/+q5/rd3Vb3ecQo5i0vlGbnxjN4cAh8q2Jc84B0zElaesOvDvJ5yyUgZcn+e4krzlDga371mPqsUuMYlFMWo+b+YnRHA4skWNNnmMOmI4pSdfgwHMWyMhvSPLGPQprPbaOMfcoFmuImTmK0xwOzJ1fzR5/DpiOKUnX4sAjZ8zMxyT55ASFtY5Rx5prFIO1xMs8xWoOB+bKreaPOwdMx5Ska3HgE0keOHGW1hfqPH+GolrHnPqLjL4jSTFYS7zMU6zmcGDiLWA9h5sDpmNK0rU58KSJXm+/dZJXz1hQX5XklhNsL9dK8oQZ57m2+Jvv2HvWBCm1zkMQf2zxxX8b/5clufM50/jaSb4vybsWKKpv3/MNgndI8pIF5smtrVtYtM3inGm//ocRs20xxWfZ+HwqyfM2H9G76ym/M+DGSa7cvIzwpgMU1PrWvjp3zWHXqGv83yXJTyepNfIKAw5sHdiVP93eToKtBFhgcbEDf5jkx48+m3+/JHdP8jVH7xn4u0l+qZEvzqkv76m51Jzq/Qw1x5przbmuK1BrqLVcvDY/48GBrQPdFvhdCyPBVgIssOAABzgwngO76mS3t5N9PNnFXMw5wAEObB3otsDvWhgJthJggQUHOMCB8RzYVSe7vZ3s48ku5mLOAQ5wYOtAtwV+18JIsJUACyw4wAEOjOfArjrZ7e1kH092MRdzDnCAA1sHui3wuxZGgq0EWGDBAQ5wYDwHdtXJbm8n+3iyi7mYc4ADHNg60G2B37UwEmwlwAILDnCAA+M5sKtOdns72ceTXczFnAMc4MDWgW4L/K6FkWArARZYcIADHBjPgV11stvbyT6e7GIu5hzgAAe2DnRb4HctjARbCbDAggMc4MB4Duyqk93eTvbxZBdzMecABziwdaDbAr9rYSTYSoAFFhzgAAfGc2BXnez2drKPJ7uYizkHOMCBrQPdFvhdCyPBVgIssOAABzgwngO76mS3t5N9PNnFXMw5wAEObB3otsDvWhgJthJggQUHOMCB8RzYVSe7vZ3s48ku5mLOAQ5wYOtAtwV+18JIsJUACyw4wAEOjOfArjrZ7e1kH092MRdzDnCAA1sHui3wuxZGgq0EWGDBAQ5wYDwHdtXJbm8n+3iyi7mYc4ADHNg60G2B37UwEmwlwAILDnCAA+M5sKtOdns72ceTXczFnAMc4MDWgW4L/K6FkWArARZYcIADHBjPgV11stvbyT6e7GIu5hzgAAe2DnRb4HctjARbCbDAggMc4MB4Duyqk93eTvbxZBdzMecABziwdaDbAr9rYSTYSoAFFhzgAAfGc2BXnez2drKPJ7uYizkHOMCBrQPdFvhdCyPBVgIssOAABzgwngO76mS3t5N9PNnFXMw5wAEObB3otsDvWhgJthJggQUHOMCB8RzYVSe7vZ3s48ku5mLOAQ5wYOtAtwV+18JIsJUACyw4wAEOjOfArjrZ7e1kH092MRdzDnCAA1sHui3wuxZGgq0EWGDBAQ5wYDwHdtXJbm8n+3iyi7mYc4ADHNg60G2B37UwEmwlwAILDnCAA+M5sKtOdns72ceTXczFnAMc4MDWgW4L/K6FkWArARZYcIADHBjPgV11stvbyT6e7GIu5hzgAAe2DnRb4HctjARbCbDAggMc4MB4Duyqk93eTvbxZBdzMecABziwdaDbAr9rYSTYSoAFFhzgAAfGc2BXnez2drKPJ7uYizkHOMCBrQPdFvhdCyPBVgIssOAABzgwngO76mS3t5N9PNnFXMw5wAEObB3otsDvWhgJthJggQUHOMCB8RzYVSfdjgACCCCAAAIIIIAAAggggAACCCCAAAIIIIAAAggggAACCCCAAAIIIIAAAggggAACCCCAAAIIIIAAAggggAACCCCAAAIIIIAAAggggAACCCCAAAIIIIAAAggggAACCCCAAAIIIIAAAggggAACCCCAAAIIIIAAAggggAACCCCAAAIIIIAAAggggAACCCCAAAIIIIAAAggggAACCCCAAAIIIIAAAggggAACCCCAAAIIIIAAAggggAACCCCAAAIIIIAAAggggAACCCCAAAIIIIAAAggggAACCCCAAAIIIIAAAggggAACCCCAAAIIIIAAAggggAACCCCAAAIIIIAAAggggAACCCCAAAIIIIAAAggggAACCCCAAAIIIIAAAggggAACCCCAAAIIIIDAgASenORP/YcBBzjAAQ5wYG8HqqauYnxxkg8L+N4B10BpIjnAAQ5woByomlq1tfnxbxR/xZ8DHOAABzgwqQNVW5seX5bk44I+adD9BeAvAA5wgAMcqNpaNbbZ8VzFX/HnAAc4wAEOzOJA1dgmxx2TfErQZwm67l/3zwEOcIADVWOr1jY3Xqj4K/4c4AAHOMCBWR2oWtvUuIeAzxpwnb/OnwMc4AAHLjhQNbeZ8asaAA0ABzjAAQ5wYBEHquY2Mb5OwBcJ+IXOz7/+CuAABzjAgaq9Bx2XJXmlBkADwAEOcIADHFjUgaq9VYMPNr5VwBcNuK5f188BDnCAAxccqBp8kHF5ktdrADQAHOAABzjAgYM4UDW4avHi40ECfpCAX+j8/OuvAA5wgAMcqFq86Lgiye9rADQAHOAABzjAgYM6ULW4avJi42ECftCA6/p1/RzgAAc4cMGBqsmLjBsmeYcGQAPAAQ5wgAMcaMKBqslVm2cfjxHwJgJ+ofPzr78COMABDnCgavOs46ZJ3qcB0ABwgAMc4AAHmnKganPV6NnGEwW8qYDr+nX9HOAABzhwwYGq0bOML0ryIQ2ABoADHOAABzjQpANVo6tWTz5+TMCbDPiFzs+//grgAAc4wIGq1ZOO2yT5mAZAA8ABDnCAAxxo2oGq1VWzJxvPEfCmA67r1/VzgAMc4MAFB6pmTzJul+STGgANAAc4wAEOcGAVDlTNrtq99/h5AV9FwC90fv71VwAHOMABDlTt3mvcTfFX/DnAAQ5wgAOrdKBq+LnHSwV9lUHX/ev+OcABDnCgavi5xn0Uf8WfAxzgAAc4sGoHqpafefwPQV910HX/un8OcIADHKhafqZxP8Vf8ecABzjAAQ504UDV9FONayV5raB3EXTdv+6fAxzgAAeqpldt3zmuVPwVfw5wgAMc4EBXDlRtP3FcJ8lbBL2roOv+df8c4AAHOFC1vWr8JcdDFH/FnwMc4AAHONClA1Xjjx03SPJ2Qe8y6Lp/3T8HOMABDlSNr1p/jfFoxV/x5wAHOMABDnTtQNX6zxqfm+Q9gt510HX/un8OcIADHKhaXzX/M+PvK/6KPwc4wAEOcGAIB6rmf2a8TtCHCLruX/fPAQ5wgANV8z897qT4K/4c4AAHOMCBoRyo2p8nCfpQQdf96/45wAEOcKBqf35ZA6AB4AAHOMABDgzlwH+tBuA3BX2ooOv8df4c4AAHOPDb1QC8VQOgAeAABzjAAQ4M5UBdFCjvF/Shgq7z1/lzgAMc4MBHqgF4jQZAA8ABDnCAAxwYyoE3VgPwM4I+VNB1/jp/DnCAAxx4QTUAj9MAaAA4wAEOcIADQznwD6sBuK+gDxV0nb/OnwMc4AAHqvZ/engfABlsCBzgAAc4MIYDVfM/Mx7kWQDPAnCAAxzgAAeGcKBq/mfGFUn+j8APEXgd/hgdvjiLMwc4cJwDVeur5n/WuHeSj2sCNAEc4AAHOMCBLh2oGl+1/tjxMEHvMujHdYF+568DDnCAA2M5UDX+xPFMTYAmgAMc4AAHONCVA1Xbd47LkjzaywFdBV6XP1aXL97izQEOXHCgnvavml61/dTjnkn+QAeoEeAABzjAAQ6s0oGq4VXLzzVukuQhSeprAy90E/7FggMc4AAHONCuA1Wzq3ZXDZ9k3CPJP0tS1w9+VZL3ago0RRzgAAc4wIGDOlC1uGpy1eaq0VWrDQQQQAABBBBAAAEEEEAAAQQQQAABBBBAAAEEEEAAAQQQQAABBBBAAAEEEEAAAQQQQAABBBBAAAEEEEAAAQQQQAABBBBAAAEEEEAAAQQQQAABBBBAAAEEEEAAAQQQQAABBBBAAAEEEEAAAQQQQAABBBBAAAEEEEAAAQQQQAABBBBAAAEEEEAAAQQQQAABBBBAAAEEEEAAAQQQQAABBBBAAAEEEEAAAQQQQAABBBBAAAEEEEAAAQQQQAABBBBAAAEEEEAAAQQQQAABBBBAAAEEEEAAAQQQQAABBBBAAAEEEEAAAQQQQAABBBBAAAEEEEAAAQQQQAABBBBAAAEEEEAAAQQQQAABBBBAAAEEEEAAAQQQQAABBBBAAAEEEEAAAQQQQAABBBBAAAEEEEAAAQQQQAABBBBAAAEEEEAAAQQQQAABBBBAAAEEEEAAAQQQQAABBBBAAAEEEEAAAQQQQAABBBBAAAEEEEAAAQQQQAABBBBAAAEEEEAAAQQQQAABBBBAAAEEEEAAAQQQQAABBBBAAAEEEEAAAQQQQAABBBBAAAEEEEAAAQQQQAABBBBAAAEEEEAAAQQQQAABBBBAAAEEEEAAAQQQQAABBBBAAAEEEEAAAQQQQAABBBBAAAEEEEAAAQQQQAABBBBAAAEEEEAAAQQQQAABBBBAAAEEEEAAAQQQQAABBBBAAAEEEEAAAQQQQAABBBBAAAEEEEAAAQQQQAABBBBAAAEEEEAAAQQQQAABBBBAAAEEEEAAAQQQQAABBBBAAAEEEEAAAQQQQAABBBBAYDUE/j/WJEgbIiqwuAAAAABJRU5ErkJggg==;" vertex="1" parent="1">
          <mxGeometry x="549" y="59" width="80" height="80" as="geometry" />
        </mxCell>
        <mxCell id="vD54dHwGd8fO52R0_b3Y-3" value="" style="shape=image;verticalLabelPosition=bottom;labelBackgroundColor=default;verticalAlign=top;aspect=fixed;imageAspect=0;image=data:image/png,iVBORw0KGgoAAAANSUhEUgAAAgAAAAIACAYAAAD0eNT6AAAAAXNSR0IArs4c6QAAIABJREFUeAHt3QeUNEd1KOArgYRARBFFDgYMAgMCPzLGMkmAyDnaRBsOPGzAgMkSOUeTczDhAMJkEBmMyPBIAmOMyBkDIijB2yvt/l7Nv7uTqjrUfH3Onk093VVfVd2609MhwkKAAAECBAgQIECAAAECBAgQIECAAAECBAgQIECAAAECBAgQIECAAAECBAgQIECAAAECBAgQIECAAAECBAgQIECAAAECBAgQIECAAAECBAgQIECAAAECBAgQIECAAAECBAgQIECAAAECBAgQIECAAAECBAgQIECAAAECBAgQIECAAAECBAgQIECAAAECBAgQIECAAAECBAgQIECAAAECBAgQIECAAAECBAgQIECAAAECBAgQIECAAAECBAgQIECAAAECBAgQIECAAAECBAgQIECAAAECBAgQIECAAAECBAgQIECAAAECBAgQIECAAAECBAgQIECAAAECBAgQIECAAAECBAgQIECAAAECBAgQIECAAAECBAgQIECAAAECBAgQIECAAAECBAgQIECAAAECBAgQIECAAAECBAgQIECAAAECBAgQIECAAAECBAgQIECAAAECBAgQIECAAAECBAgQIECAAAECBAgQIECAAAECBAgQIECAAAECBAgQIECAAAECBAgQIECAAAECBAgQIECAAAECBAgQIECAAAECBAgQIECAAAECBAgQIECAAAECBAgQIECAAAECBAgQIECAAAECBAgQIECAAAECBAgQIECAAAECBAgQIECAAAECBAgQIECAAAECBAgQIECAAAECBAgQIECAAAECBAgQIECAAAECBAgQIECAAAECBAgQIECAAAECBAgQIECAAAECBAgQIECAAAECBAgQIECAAAECBAgQIECAAAECBAgQIECAAAECBAgQIECAAAECBAgQIECAAAECBAgQIECAAAECBAgQIECAAAECBAgQIECAAAECBAgQIECAAAECBAgQIECAAAECBAgQIECAAAECBAgQIECAAAECBAgQIECAAAECBAgQIECAAAECBAgQIECAAAECBAgQIECAAAECBAgQIECAAAECBAgQIECAAAECBAgQIECAAAECBAgQIECAAAECBAgQIECAAAECBAgQIECAAAECBAgQIECAAAECBAgQIECAAAECBAgQIECAAAECBAgQIECAAAECBAgQIECAAAECBAgQIECAAAECBAgQIECAAAECBAgQIECAAAECBAgQIECAAAECBAgQIECAAAECBAgQIECAAAECBAgQIECAAAECBAgQIECAAAECBAgQIECAAAECBAgQIECAAAECBAgQIECAAAECBAgQIECAAAECBAgQIECAAAECBAgQIECAAAECBAgQIECAAAECBAgQIECAAAECBAgQIECAwCAETh0Rl4mIu0bEoyPi5hFx/kGUTCEIECBwssD5IuKm6zHq7hFxuYjI2GUhQGABgZz0PxARv4uIP23x9ZOIeEFEnGmBbXsJAQIElhU4Q0Q8NyJ+tEV8ypj1+4j4cERcftkdeT2BVRHIrPlhEXHcNoNqMhn4bkRcd1Vw1JMAgUEIHBQR354xRh0fEYdGxF6DKLlCEBiowOkj4lMzDqrJRODxA62TYhEg0JbAoyLijwvEqc87YtlWR1CbsgLPW2BQbU4EHAko2x62RoDAKQWuueDkvxGnXnbKzfmNAIEUuNaSAysHWH4c4JwA/YkAgRoCeYTyW0u+Sck4dYMahbNNAmMV2Cciji4wsHJw5YmBFgIECJQWeGahGPWDiNi3dOFsj8BYBa5UaGBlApBn5FoIECBQWmDWk/4yDk37yo8SLAQIRMS9Zxgw0wbU5v+fhyoBAgQKCpy1cIy6f8Gy2RSBUQu8pPDgOmTUGgpPgMDQBK5dOEa9ZmgVVB4CfQl8tvDgenhfFbFfAgSaFHhg4Rj1lSaVVIrAAgJHFR5cT1igDF5CgACB7QTy2v/NHzMu+3OeT2AhQCAiJAC6AQECQxaQAAy5dZRt1AISgFE3n8ITaF5AAtB8E+9ewYtExK3Xrtl88toT6d4SEYf7qmLwm8KH176hnaq0U/b/168/q+F6EXG23YeMv3QscJaIyBPUHhIRr9Pvq/X70m9S8iFn5pM6BjlX55ydc3fO4XMvd1m7NO2nhSelZT8z8vqyn8HxLOP5hYj4y7lHmBcsK/AXEfFJMaro5/JiQpmYMDTHnMtzTp+67B8RbzeoDCp9YK4+cMLas88f42lnU+NLiRXmfVrm0IKx8rQ5yY6hXXNuzzl+y+USEfFzgX+uwD+GRlfG7gLOkRGx95ajyx9LCOTk/xExSozSBxbuAznH51x/iiUH1qKPoTXBdDfBsB6+9eNOMbL8UlLgEQL/woFf7Bh+7OiqjXKuzzl/1/IwA8vA0geK9IH8OOCKu0aWH0oJXC4ijtNHi/TRriYa+xlu0pFz/knLhQ0sg0pgLdoH3OVsI7qU+/4ZfbRoHzU5D3dy7qJtMpnOuf+kswO72KF9rHaHW7X2P3e5uW/lt5SX+q1a/1FfbV67D5x0ZcDzDC7BRR8o3gduvPLTdjmAv9E/i/fP2pOL7Q8/gcm5Pz5tcBlc+kDxPnBYuflv5bdU+kE0JqfhT07aqH4b5dwfvxb8iwd/nbd+5x268RtWftouB/AiMUqM0geK94Gc+x0B0LGKd6yhT85dlM8RgHIJgCMAEuouxuyq7eOkIwDOATC4Vq3jd1Ff5wCUSwCcAyBGdTFmV20fJ50DkGcCrlrF1Veb1+4DrgIolwC4CsB4rT1eV3H7J10F4D4ABtcqdv6adXYfgHKT/8aWPuuNijdq+kCxPrDrPgA5wNxiUxJQc0JcpW2fGBFX3pi1fC8mcGBEHG8CKDYBrNKYVNfd57ec83cteV9gGfbuSDoOk3n7wJN2jSo/lBY4VAIgAdAHlu4DOdef4lkAOVAvFRG/grs07rwThvXbSTJyYJ2m9Kxne7sE9oqIT4hRYpQ+sHAfyDk+5/otl/NFxPvgLoxrMm9nMp+nLfOwf77zN/lvGVaK/jEft/wYHweIUeapuftAzu05x++47BER93I0YG7ceSYM67aTKOQJfz7z3zGkVPnnFSLiiyYBcUofmNoH8l1/zuk5t8+87BkRB0TEnSPi2WuPOH1XRLzbVxWDYwp34m9rpyrtlP3/rRGRN/nJ6/xd6jdzOKm24v5r5y8dshbcHh0Rh+v31fr9twrHqIx55pM6BjlX55ydc3fO4TmXWwYscFThwfWMAddV0QgQGJ/AEwrHqIx5FgIEIkICoBsQIDBkAQnAkFtH2UYtIAEYdfMpPIHmBSQAzTexCvYlIAHoS95+CRCYRUACMIuSdQgsICABWADNSwgQ6ExAAtAZtR2tmoAEYNVaXH0JjEtAAjCu9lLaEQlIAEbUWIpKYAUFJAAr2Oiq3I2ABKAbZ3shQGAxAQnAYm5eRWCqgARgKpEVCBDoUUAC0CO+XbctIAFou33VjsDYBSQAY29B5R+sgARgsE2jYAQIRIQEQDcgUElAAlAJ1mYJECgiIAEowmgjBHYXkADsbuIvBAgMR0ACMJy2UJLGBCQAjTWo6hBoTEAC0FiDqs5wBCQAw2kLJSFAYHcBCcDuJv5CoIiABKAIo40QIFBJQAJQCdZmCUgA9AECBIYsIAEYcuso26gFJACjbj6FJ9C8gASg+SZWwb4EJAB9ydsvAQKzCEgAZlGyDoEFBL4eEX8q+PXMBcrgJQQIENhO4IkF41PGunzTYyGwsgKnjYi/i4hPFR5YObiOj4g3RcS1ImKPlRVWcQIElhW4ZkS8ISKOqxCnPhIRt42IvZctpNcTGIvAfhHx1Ij4RYUBtdVRhDy68A8RcaqxACknAQK9CuwZEXeLiK92FKN+HBGPjYgz9lprOydQUSDfiec7/p92NKgmk4HPRcQVK9bPpgkQGL/A5SLikz3FqB+uHxEYv6IaENgkcPG1w/Ef62lQbU4E/hgRL4iI028qmx8JECCwT0Q8PSJOGECcOiIiLqxJCLQgcFBE/HIAg2pzIvD5iDhPC7jqQIDA0gJni4iPDyxG/SwirrZ0zWyAQI8Ceci/xskzmyfzRX/+XkRctkcbuyZAoH+BPDr5zYFN/hsx7Q8Rcbv+iZSAwPwCDxzooNoYXPn9NxFxlfmr5hUECDQgcJkOT0beHHfm/fm+DVirwgoJ3Doi8vP2eTt6H+vnSYk+b1uhzqmqBCLi3BHx3ZHEqBMj4qZajcAYBK4cEb8fycDaSDi+FhFnGQOuMhIgsLTAvhHx2ZHFqN9GxBWWrrkNEKgocM6I+MnIBtZGEvCeii42TYDAcAReP9IYlZcJ5gmLFgKDFHjNSAfWRhJwx0GqKhQBAqUEDhl5jHp5KQjbIVBS4G9GPrAyCcg7cvkooGSvsC0CwxE4XUR8u4E49VfDIVUSAiffy/obDQysTAKeP6IGzbsrniMi8mzmK/li0GEfyEto8yO/vG3uWJbST/TbOHLY9fe8RfFeY0FXzvYF7tTI5J8DOR8klGcID23JZxlk5v+09VuV5hnMWdaug4/9Md/cB7IP5j018qFez1jvo0N87kYe2csT6TaXfcw/uz/A0CL0CpfnyIYGVgaFRw6oLXPSz8/98s5gYw5Yyr467ZeX1r50PRkYylB6QGPj56NDgVWO1Ra4fGMDKyeqfEdz6p6b9dIR8Y4GbSUCq5MIZFu/a/0jqj6HU35M8a0Gx1LGCAuBXgVe2ODAysB1455UzxURL4uIvPmHyZJBC30g+/Krevxo7eBGx9Jze4pRdktgl8DRjQ6uPk4GPHBEdydrYWJSh24TrLyOPU9W7XrJcxNabOs8qmEh0JtA3kK3xYGVdTqqY9WbN3aSUqv9Qr2WG/P5gJuu77fxuYbj1Pk7jlN2R2CXwF0aHlgZ6PffVdO6P+QJSmN5doIJcLkJkN/JfofVHVK7tn6mxj9Ou/OumvqBQMcCeaZvywHtVh143qZxw5b7h7otN/7v2cH4uk7j4+vFHRjaBYEtBd7X+OC6/5a1LvfHfLjH7xo3NEkuN0m27HdcRFyz3HDackt3bXx8vXfLWvsjgQ4EvtD44Mo7h9Va8mZD32/cr+XJS93KJDZ5f4uaj+N+cONj7PO1ApTtEpgm0PoE9pJpAEv8/62NByYTZJkJchUcP7TEOJr20qc2Ps7yniUWAr0IHNv44MpJusZyjcbdVmHSUseyCc71awy0iHhF42MtY7CFQC8CrQfBd1dS/WTjQan1fqF+ZSf/9Px/lR4s9LoVGGuVwpTNEthZoPVAWCMByCsLWndTP228SB+ocUmbBGDnGO6/BBYWWGSQj+k1NRKAD0sAJED6wJZ9IJ8oWHqRAJQWtT0C6wJjmswXKWvpBOCsEXGC4L9l8F+kfbymrSMNeTOs8xaOrhKAwqA2R2BDoPUAXDoByEOcrZupnzZepg/ceyO4FPouASgEaTMEJgWWGehjeG3pBOBNEgAJkD6wYx84YjLILPm7BGBJQC8nsJ3AGCbxZcpYOgH4leC/Y/Bfpq28to0jD8dHxF7bBZwF/i4BWADNSwjMItB60C2ZAORDSVr3Uj9tXKIPnG+W4DPjOhKAGaGsRmBegRKDfcjbKJkAHCABkADpAzP1gSvOG4h2WF8CsAOOfxFYRmDIk3eJspVMAFp/KlkJb9twBCH7wE2XCUoTr5UATID4lUApgdYDdskE4C7e/c307q/1PqV+05OcklcCSABKRXvbITAh0HowK5kA3E8CIAHQB2bqA/kEv1KLBKCUpO0QmBBoPQE4JiKOKvT1Y8F/puDfep9Sv+lHAH5SaMzl2P31Coy7ibDsVwLdCAhm04MZI0b6gD5Qsw90E+3thcCEQM1ObduCpj6gD+gD0/vARFj2K4FuBAzO6YOTESN9QB+o2Qe6ifb2QmBCoGantm1BUx/QB/SB6X1gIiz7lUA3Agbn9MHJiJE+oA/U7APdRHt7ITAhULNT27agqQ/oA/rA9D4wEZb9SqAbAYNz+uBkxEgf0Adq9oFuor29EJgQqNmpbVvQ1Af0AX1geh+YCMt+JdCNgME5fXAyYqQP6AM1+0A30d5eCEwI1OzUti1o6gP6gD4wvQ9MhGW/EuhGwOCcPjgZMdIH9IGafaCbaG8vBCYEanZq2xY09QF9QB+Y3gcmwrJfCXQjYHBOH5yMGOkD+kDNPtBNtLcXAhMCNTu1bQua+oA+oA9M7wMTYdmvBLoRMDinD05GjPQBfaBmH+gm2tsLgQmBmp3atgVNfUAf0Aem94GJsOxXAt0IGJzTBycjRvqAPlCzD3QT7e2FwIRAzU5t24KmPqAP6APT+8BEWPYrgW4EDM7pg5MRI31AH6jZB7qJ9vZCYEKgZqcewrb/OyKeX+jryBAEh9CmyjD8fnjEWpx5VKGvo1Zg3E2EZb8S6Eag9WB6eEHGB69AIGq9P6hfN8lDjpVSS47h1tutlJXtEJhLoPWBJQFoP3i23ofHWD8JwHzjbq6gbWUCpQTGGFzmKXPJBOD+K/BOZB5b684X5FfJ6x9LBaiIcASgIKZNEdgs0HpQKpkA3FYC0Pyh2NbHQ1f1u/XmILPkzxKAJQG9nMB2Al0FhL72UzIBuIYEQAKgD8zUB666XcBZ4O8SgAXQvITALAJ9Tcxd7bdkAnBhwX+m4N9V29rPcD+CuOAswWfGdSQAM0JZjcC8Aq0H0ZIJwD4SAAmAPjC1D/wxIvaeNxDtsL4EYAcc/yKwjIAEYD69L5sApk4Arfcp9dv5yMPn5htSU9eWAEwlsgKBxQRaD2YljwCk8GESAAmAPrBjH3jkYqFo21dJALal8Q8CywlIAObzO1Dw3zH4t96f1G/nd//pc9n5htTUtSUAU4msQGAxgdYDWukjAKn8bUmAJEAf2LIPHL1YGNrxVRKAHXn8k8DiAq0nAG9ZnGbbVz5W8N8y+Lfel9Rv+rv/x207ahb/R47h1u0X1/FKAksI/KrxwfWKJWy2e+mZI+Lnjbu1HnDVr/ykmmMix0bpJcdwy+2VMdhCoBeBrzU+uB5fSfWfGndrOeCqW50JteTtfzcP2xzDLbdZxmALgV4E3t/44LpPJdXTREQ+arjlwKRu2nfWPvCtwtf+bx62OYZnLccY18sYbCHQi8CrGh9cN6+oesOIyJuejDHoKLN2K9UHToyIgyuOsxzDpco6xO1kDLYQ6EXgiY0PritXVs3Hng4xqCiTdumqD5R89O9WwzXHcFd16WM/GYMtBHoRuFPDg+uEiDhLB6qvbNiwj4Bon+OZ8F7bwfjKMZxjudV+kTHYQqAXgf0aHlwf7Eg0zwf4aMMBqtXAq17LTapHRsRpOxpjOZZbbK9MbDIGWwj0JtDq4Pq/HYpmIMx3Qy0GKXXSrpN94I0RcboOx1eO5ckytPB7V29SOmwquxqbQKuD6wI9NMRDnRjYZKBuYbIpUYc86fVREbFHx2Mrx3KJ8g9tG12+Sem4yexuLAItDq7P94h/44j4YaMBa2gBVHm6mxizT9e8qmbakM0x3Vp79/EmZZqz/6+gwDsbG1z36LkN9107t+JhEfHrxlxbC8DqM31SzTvV5ZGt7NN9LjmmW2qvjLkWAoMQuHRE5PW8LQywvLPWqQahGnG2iHi6Wwc30a9aGBvz1OHHa5P+kyPirAMZSzmmW7lzacbajLkWAoMReFkjCUAegh/aksHrmuvJQN41bZ5AbF1eXfWBvLvl0yLi6hGx59AGUUTk2O7KouZ+MtZaCAxK4LwR8fuRD7C8HG8My/4RcfmIyLsJ5qHNR0bEE5b8ev3I265mwG1t229fsq9kX8uT+e4ZEYdExBUi4txjGDgNXHKbMTZjrYXA4ARyIhprsDxuPZANDrWjAl1vxG031j7XV7n/tqM+NcTdZLKSY70v+2X3mzHWQmCQAnnY720jHVx3H6Rod4W69kjbbdmAuoqvv2N33WqQe8qxPsZ2z9g6xI9WBtnICtWPwBki4isjG2DP6odqUHu97MjabIwBfChlrvnwnUF16h0Kk2N+KO0xSzkypmZstRAYvMBFRnTm+hERcerBi9YvYJ5XMEsgss74nQ6s350Gv4cc8zn2x9Cffx4RGVMtBEYjcLWI+MXAB1jej7yLB/6ModEyIHo88TgmhGUnrfOMoUN2UMYc+xkDlvWs+fqMoRlLLQRGJ/BnA7729tVrZ0LvMzrRegW+UcMPdqoZoMe47dvV60aj23LGgIwFQ2zHvG9BxlALgdEKnCki3j2gAZbvch8yWs3yBd97/f4CQwyAylRvYnq+BPgUgyljwpCOgGXMzNhpITB6gbyRzePWJt5je04Evh8R+U7XcrJAfq74mZ7bxCRfb5KfZvvFiLi4wbBLIGPD93oeDxkjM1YO5W6ku3D8QGBZgQtFxGt6yLTzfuT/0vEjSJe1qv36W0dEukybJPy/baPfRMQdane2EW0/H839oB7OX8rb+74yIjzgZ0SdRVEXE8izkN/XweST2XTeS38o9yNfTKvsqzLAvbADe4nDuBKHl0qQTzHQ8gTBJ0bE7zoYK3l9v3v7n4LfL6sgkCe43D8iPlzwBLR8V5u3tc0Tnc68Cohz1PESa49k/VIHAc3kP67Jf6O98lrzA+boT6uw6ukj4hbrJwr+stDYOT4iPrB2qfR9IuJ8q4CojgSmCeS79DutZ92vWnugyPsj4qsR8T9bDLo8WSefNpbP+H5HRLwoIh4dEddZ+/wsT2qz7C6Qt/o9ZgvLjeDv+zgn7dLt9tv1+/vv3oP8Za+IyDtmZqzJmJOxJ2NQxqKtTiDM2JUxLGNZxrQ8opB3YdwPJQECBLoSuOXI739eepKzvZ2TnXyH6ryArkan/RAgQKCSwF0jIk8wMukxmKcP5Dvae1fqkzZLgAABApUF8vyKeYK+dXlN9oGHVe6jNk+AAAEChQUOM/lLfgr1gaetfe69R+H+aXMECBAgUFggA/WzCwX+yXeDfl/dIwR5maCb0xQerDZHgACBUgL5QJ+8mYiJmkGNPvAmV9mUGqq2Q4AAgXICp4mIw03+kp/KfeC9EbFvuW5rSwQIECCwjEAG5LzWuMa7PtvkOtkHPuEx2ssMV68lQIBAGYG8Ocl7TP6Sn477wMfXbmyTt5W2ECBAgEAPAnnCX95hbPIdWhe/b3Xnsy72ax/9tPdW7vmRkxMDexj4dkmAAIEn9TT5/2D9tssXW7+96Y96KsdWk9Kq/C0fUpMnfF5j/fa0fT3G9nmGIQECBAh0K3C/nibdN2/xdMX8GOJmEfFOdx2sfjQm7z2fd+ibfNBVPr0uH4LVRwLkZkHdjn17I0BghQVuvc3DR2oG/3yQ0N1mMD9DRFwqIm4QEfdaP0Lwuoh4d4df+fl0aYsvR8SRHX7l2fb5wJmcXPMhWX8VEeefwT8fNpNPxCxd/2nb+7sZymYVAgQIEFhC4GoRcWzHAf4bEXHxJcrc9UsvW8HnSl1XYon9XaiHxz7nA4SutUSZvZQAAQIEdhA4V0Tk5+/T3o2V/P8HR/j40lVPALILnTEi3tVxX/lZRFxgh/7rXwQIECCwgEDe5e+jHQf0F0dEfr4/tkUCcHKL5Rn6Xd8W+tMRkTelshAgQIBAIYFndDj55+ODH1Co3H1sRgJwSvX7rJ1LcEKH/ScTRwsBAgQIFBC4bYfBO0/2u3GBMve5CQnA7voHR8SvO+xHs5wwunsp/YUAAQIEdgnkGfW/7Shw537yuvKxLxKArVswT2TsKgn4Q0RcYeti+CsBAgQITBPIE7nyDPySJ/Vtt63fR8RB0wo0kv9LALZvqKtGxG866lNHb3HPiO1L5j8ECBAgsEvgJR0F6ny3dt1dex3/DxKAndsw7ynQ1VGlN+xcFP8lQIAAgUmBG3Y0+R8XEbmvlhYJwPTWzKM9eTvh7Y4Ilfx7nsNiIUCAAIEZBM4aET/sIDjnzVtuOkN5xraKBGC2FrtOROTRn5KT/Vbb+nlE7D9bkaxFgACB1RbIW+duFUhL/i0vC7tVo8wSgNkb9vod3VnyHbMXyZoECBBYTYG8z3/JiX67bbV8mZYEYL6xc4uOni3Rcp+bT9zaBAgQmBDIW/3m7VS3m7RL/f05E/tt7VcJwPwt+pgO+l1egnjB+YvmFQQIEGhf4G0dBOEPj/T2vvO0vgRgHq2T191z7br9t3fQ//LZEnvMXzyvIECAQLsCt+wg+H4nIs7RLuGumkkAdlHM9cOZOrrvxF3nKpWVCRAg0LDA6SIiJ+dSh/i32k7e6OfyDRturpoEYLPGfD9fsoO7Bf4kIs48X7GsTYAAgTYFuvj89Y4L0OXT5K4SEfkwmZetXTL4xYj40Qi+apxH8e2IOGoEX/kRz9MjIts7J/NFDrffpIOTAp+1QH/0EgIECDQlcJEOrsXOCWHeJSePfLTrVkcT/G08Lu9f8MS7Qyu3fV6Geul5O6X1CRAg0JLAv1cOtDkB5Dv5WZdc9587SEokEd0lEXn2/T1m7QDr6+WRg9onpX5ozjJZnQABAs0I5E1Yak6E31/gYSzPrFymmvW17Z370+PmHDl5UuB/Ve4Pt5mzTFYnQIDA6AX2joj/rBxc573H/9U7+OzXJL3zJF3TJw+75yOB51n+unKf+F5E7DtPgaxLgACBsQs8pPLk/8o5gfJKhNoJSc3JzbZnSyzyRMZ95uwbz6vcVx8/Z3msToAAgdEKnK3yM9nzQUL7zanzgMpB3gQ92wTdhVOe4zHPcoaIOLpi/zg2Is4/T4GsS4AAgbEKPKFiMM0JJC/jmnd5c+UydTGx2cdsSUaeeDrvct3K/eP58xbI+gQIEBibQO13//+2IEjtGxGZnGebnLtwyiNEiyx5L4ha5XMUYJEW8RoCBEYlUPPd/48jIhOMeZdzVgzstSYM211uMj7PvJ1k/e59P6jYVxwFWKBRvIQAgXEI1H73n491XWTJs/9NqKtlcK1FOkpE3KhiX3EUYMFG8TICBIYvUPPd/xFLVP+aFYO6xGLvB2VgAAAT5klEQVSYicX1lugv76jYXxwFWKJhvJQAgWEK1Hz3/8eIuNwS1ZYADHOSrpk8LZMAHBAReU+BGuVzFGCJgeylBAgMU6Dmu/95r/mfFJIA1JnMakyQpba5TAKQ/edFlRKArJ+jAJMj1O8ECIxWoOa7/3zM77LXUEsAJADzDq79I+KYSkmAowDztob1CRAYrMBhlQJlvlvKIwvLLhIACcAifejRFfv1sxcpkNcQIEBgSAJ5z/+8PK/UodvN28nn3ucDW5ZdJAB12mdzWw3t52U/Asg+d/qI+FGlvp1PMMw7EFoIECAwWoE7VAqQOaHct5CKBEACsGhXumfF/n3vRQvldQQIEBiCwJGVAuQ3I2KvQhWUAEgAFu1Kp4qIr1bq47ldCwECBEYpcIVKgTHf/d+yoIgEQAKwTHc6pGI/P2iZgnktAQIE+hJ4eaXAmO+M9ihYqVVKAI6PiE9HxFsi4rlrt05+TkTkg5A+GRHHVWqvoX3+n+UpcQ7A5i74uUp2b9q8Ez8TIEBgDAJ56d8fKgXFuxUGWIUEIO+UeKeIOMsOdnlC5e0j4t2V2m1IiUDpBCDdatQvbzh03h3azL8IECAwOIEHVwqIeUXBPoVr23ICkO/2FzmMfI2I+ESlNqwxUc67zdIJwKkj4ruVvB5TuL/bHAECBKoJ5IlRR1cKho+oUOpWE4C8ljzbYtFlz7VL3Z5SqR3nnbBLr186AUjjB1SyyqQ3L6e1ECBAYPACN6kUCH+34ON+p4G1mADcZ1ql5/j/3Su1Z+lJfZ7t1UgAzhgRv6pkdbs52suqBAgQ6E3gvZWC4PMq1ai1BCDftZde8jD0PBPs0NetkQCk+VMrOX2sdIPaHgECBEoLnCsiTqwQBPOJfxcrXdj17bWUAHxgycP+2xHnVRfvqtCufSUKtRKAfC5FXmlRo14X2q5x/J0AAQJDEMhDzzWC31srVq6VBCATr0tXdMoErNbkVqPP7LTNWglA8r+20hjIE2stBAgQGKzAxysFvzwrvdbSSgKQ912oveSjaneaWMfyv5oJwIGVjL5Yu3FtnwABAosK5OHPPFRfehLIS9lqLq0kAFesibS+7ctWaN/S/WWW7dVMAJLqg5WcLtlBG9sFAQIE5haodRlU3mSl5tJCAvD9wndH3Mn7vytNbrNM3KXWqZ0A3KiS0aE7NYz/ESBAoC+Bz1QIer+JiNNVrlALCcBLKhtt3vy/VmjnUhP7rNupnQDkjYF+WsHpPzc3hJ8JECAwBIGLVgh2Gcxf1UHlWkgAHt6B08YuHliprWedvEusVzsBSKt81kKJsk5uIx+yZSFAgMBgBB5WKdgd3EENW0gA7tqB08Yuat33fnKiq/l7FwnAVSqNiRr3edhoW98JECAwt8CXKwS7PISah1JrLy0kALepjbRp+7Xu9Fhzwp/cdhcJQJJ9q8K4yGcOlHwa5qam9SMBAgTmE7hUhSCXATsPoXaxtJAA3K8LqPV9/H2l9p6cpGv+3lUC8NhKVjUvi+2wK9kVAQJjF6h1m9irdgTTQgLwpI6scjd5JnrNybmLbXeVAORlezXqkydiWggQINC7wOcrBLlvd3iYs4UE4EMd9oJ3VmjvGpPkTtvsKgHIZqkxPvJjAAsBAgR6FThHpZv/PL7DWrWQAJwQEWftwGzfiPiDBGAu6Vr3x/jzuUphZQIECBQWyMeU7vROa9H/1byn/SRBCwlAOudje2svt6rU3ov2k0Vf1+URgPNWekDWfWs3tu0TIEBgJ4G8//yiQXi7131ppx1W+F8rCUCecb53BZ+NTZ4qIr5Sob236wc1/95lApB+NW4N/LaNhvGdAAECfQjkLWhLB+qHdFyRVhKAbIeaVwPco0Jbl+47s26v6wTgbhXs8i6Ze3U8VuyOAAECJwkcUCGoZQC/YMe+LSUAx0TEZSr4XSIifl2pvWedtEuu13UCcOaIOLaCn8sBK3R2myRAYLpAvtssGZRzW10f/s9atpQApGE+rOds05tv5jXOEhF5D/rSbd3n9rpOABL7/RUM8xJcCwECBDoXqHE52NM6r0V7CUBOrF+PiIsXsLxIRNS4y2Ofk3/uu48EID/aKl3vTxZoY5sgQIDAXAJ5slkebi4d0K4/VynKrNzaEYCNNvmfiMiz9hddbhoRP6/Qxhvl6/N7HwnAX1awPDEi8giNhQABAp0J1Jg0j4uIvM6866VGXfqc3Cb3/fG1w89XnwP1yhHx4QqT1WS5+vy9jwRgz4j4ZQXXW8zRtlYlQIDA0gKPqxDIctLpY2k9AdiYaPPuis9aO8/i5hFxxYg4X0TkNer/JyLy3f4zIuK/KrTrxv6H9L2PBCD79psr+L6wj0FjnwQIrK7ApysEsi6fab+55VYlARjSBNx3WfpKAO5VYdzkSZ8WAgQIdCJwxkp3NrtSJ6XffScSgPLncvQ9wU/bf18JwMUqJABZ1wvt3q39hQABAuUFDqoQxPKEtbzTXB+LBEAC0GW/+06F8bPMyZ5d1t2+CBAYucA/Vwhgh/doIgGQAHTZ/V5WYfw8ucsK2BcBAqsr8MYKAezePXJKACQAXXa/21cYP10+DrpLK/siQGBgAnk2+bTPWOf9f4mb1izKJAEo357ztn/X6/d1DkD20XNVGD95m+a8zNBCgACBagJnrxC88jPRPhcJgASg6/6Xt7wunfRcsutK2B8BAqslkHfqKx24XtozoQSgfJuW7iOlt9fnEYDs7k+vMI7u1PM4snsCBBoXeGSFwHW7ns0kABKArrvgDSuMo2d3XQn7I0BgtQTeViFwdf3438kWkwBIACb7RO3f96swjo6sXWjbJ0BgtQV+VDhw5fX/fS/52WnpQ8y2N2zTA/vudBFR+n4Af4iIvQZQL0UgQKBBgbx3fOmJ7SMDcMqzp39ToW6lrWyvTP8bykRZ42jaEBKbAQxpRSBAoLTAzSpMks8pXcgFt9f60+8kD/+bPHxywT5S+mWHVRhP9yxdSNsjQIBACjy+QsC6+0Bon1qhbibd/510h2Tx3IH0uXyMb2mXFw+kbopBgEBjAkdUCFj5KNohLJeKiGMr1K90gLe95SbN4yLickPocBFx0Qr97QsDqZtiECDQmMAPCgesEyPidAMyemjh+pmsl5usa/g9akD9bY8K555kEuuOgANqZEUh0ILA6StMjkcNDObUEfHZCvWsMZHZ5vzJxecGeJb8f1Tob31fVjuwYa04BAgsK3DZCoHqDcsWqsLr87BsHkY1wbZlkG2abTu05XkV+tq1hlZJ5SFAYNwCNU5YykPuQ1zyWupDI+L4CsFZYtFtYpFtmG051Ovj86z90n3i74c4qJSJAIHxCjykQqDK26EOebl8RLxo/YiAZKD8RFV64tvYXrZVvuPPtss2HPJypQrj6ilDrrCyESAwPoF8YM9GgC31PW8sNJbltBGRwfomvgZtkG2UbTWWZd+IyJNhS42p3M7hY6m8chIgMA6BvGNfySD1i3FUWykJVBf4RuGx9eXqJbYDAgRWSuCHhYPUB1dKT2UJbC+QJ8OWTK5/HxF5iaGFAAECSwvUuATwmUuXygYItCFQ4/4TY/p4rY1WVAsCjQrUuATwLo1aqRaBeQXyZNiSRwByW389byGsT4AAga0EblkhQF1tqx35G4EVFKhxS+ChPGNjBZtTlQm0JfAvFRKAC7VFpDYEFhbI22GXPgLwxIVL44UECBDYJFD6EsA/rj1Z8DSbtu9HAqsu8MvCScCbVh1U/QkQKCPw0cLB6adlimUrBJoRyEv3Sh4F+GIzMipCgECvAqUvAfTI0l6b084HKPCewgnAMQOsoyIRIDAygXy0aOk7lb1jZAaKS6C2QOmP2fJowplqF9r2CRBoW+Dshd+ZZGB6YdtkakdgboHDKoyzP5u7FF5AgACBTQKXqBCYHrlp+34kQCAin+BX8hyA3NZVwBIgQGAZgWtUCEx3W6ZAXkugQYFDKoyzGzfopEoECHQocPMKgengDstvVwTGIHBghXEm0R5DyysjgQEL1Dg0+RcDrq+iEehD4JwVEoC8gZeFAAECCws8vEJg2m/h0nghgTYF8ul9xxUea09vk0qtCBDoSuBZhYNSPqrUQoDA7gJHFx5rr959F/5CgACB2QVeWzgofXP2XVuTwEoJ/EfhsfbeldJTWQIEigu8r3BQ+nDxEtoggTYE3lh4rH2+DRa1IECgL4G8bW/J65PziIKFAIHdBZ5ReKx9b/dd+AsBAgRmF/h+4aD05Nl3bU0CKyXwwMJj7diV0lNZAgSKC2QQKXkE4H7FS2iDBNoQuF3hsZbj1vMA2ugbakGgc4EMHiUn/9zWHTqvhR0SGIfAtSuMN88DGEfbKyWBwQlcpEJAusXgaqlABIYhcLUK483zAIbRtkpBYHQCV6oQkG4wOgUFJtCNwOUrjDfPA+im7eyFQHMC16oQkA5qTkmFCJQROKDCePORW5m2sRUCKyeQ79ZLnwNw5ZVTVGECswlcuMJ4u8tsu7YWAQIETilwswoB6XKn3IXfCBBYF9i/wnj7B7oECBBYROC2FQLSny9SEK8hsAICZ64w3lx2uwIdRxUJ1BC4c4WAdIEaBbVNAg0I7FNhvD2oARdVIECgB4F7VAhI5+ihHnZJYCwCfyw85h4xloorJwECwxK4T+FglCcUnnFYVVQaAoMS+F3hMffYQdVOYQgQGI3AAwoHo0wA9hpN7RWUQPcCPy885p7SfRXskQCBFgQeWjgYndACijoQqChQ+uFbz65YVpsmQKBhgUMLJwDHNGylagRKCHyz8Jh7YYlC2QYBAqsn8MTCweinq0eoxgTmEvhS4TH38rn2bmUCBAisCzyjcDD6DlkCBHYU+HThMfdvO+7NPwkQILCNwL8WDkZf32Y//kyAwMkCHyk85t4MlgABAosIvKRwMPriIoXwGgIrJPCewmPuHStkp6oECBQUeHXhYHRkwbLZFIEWBQ4vPOaOaBFJnQgQqC/wxsLB6IP1i2wPBEYt8LrCY+6jo9ZQeAIEehP498LB6F291cSOCYxD4GWFx9ynxlFtpSRAYGgCpY8A5EcKFgIEthd4auEE4GPb78p/CBAgsL3AwwoHo3/cflf+Q4BARNy+8JhzJ0DdigCBhQQOLhyMrr5QKbyIwOoIXKzwmLvT6tCpKQECJQXOWTAYnRgR+5YsnG0RaFBgj4j4VcFxd8kGjVSJAIGOBD5eKBi5HrmjBrOb0Qu8otCY+1pE7Dl6DRUgQKA3gYtGxG+XDEi/jIjz9lYDOyYwLoGzRsSPlhxzecTtyuOqttISIDBEgfssGYzuOMRKKROBAQvceMkx95QB103RCBAYkUB+LrnoXQHzeQIWAgTmF3j6gklAfmx32vl35xUECBDYXuDWEfGzGYPSDyLihttvyn8IEJhBIMdQjqU/zfD1h4h4UEScaobtWoUAAQJzC+SVAXmS0ve2CUhHR8QLImK/ubfsBQQIbCWQYykfzPXTbcZcnqPzvog4YKsX+xsBAgRqCJwrIg6JiH+KiLxnwNlr7MQ2CRDYJXDBiLjl2tn9h0bEXSLi0t7x77LxAwECBAgQIECAAAECBAgQIECAAAECBAgQIECAAAECBAgQIECAAAECBAgQIECAAAECBAgQIECAAAECBAgQIECAAAECBAgQIECAAAECBAgQIECAAAECBAgQIECAAAECBAgQIECAAAECBAgQIECAAAECBAgQIECAAAECBAgQIECAAAECBAgQIECAAAECBAgQIECAAAECBAgQIECAAAECBAgQIECAAAECBAgQIECAAAECBAgQIECAAAECBAgQIECAAAECBAgQIECAAAECBAgQIECAAAECBAgQIECAAAECBAgQIECAAAECBAgQIECAAAECBAgQIECAAAECBAgQIECAAAECBAgQIECAAAECBAgQIECAAAECBAgQIECAAAECBAgQIECAAAECBAgQIECAAAECBAgQIECAAAECBAgQIECAAAECBAgQIECAAAECBAgQIECAAAECBAgQIECAAAECBAgQIECAAAECBAgQIECAAAECBAgQIECAAAECBAgQIECAAAECBAgQIECAAAECBAgQIECAAAECBAgQIECAAAECBAgQIECAAAECBAgQIECAAAECBAgQIECAAAECBAgQIECAAAECBAgQIECAAAECBAgQIECAAAECBAgQIECAAAECBAgQIECAAAECBAgQIECAAAECBAgQIECAAAECBAgQIECAAAECBAgQIECAAAECBAgQIECAAAECBAgQIECAAAECBAgQIECAAAECBAgQIECAAAECBAgQIECAAAECBAgQIECAAAECBAgQIECAAAECBAgQIECAAAECBAgQIECAAAECBAgQIECAAAECBAgQIECAAAECBAgQIECAAAECBAgQIECAAAECBAgQIECAAAECBAgQIECAAAECBAgQIECAAAECBAgQIECAAAECBAgQIECAAAECBAgQIECAAAECBAgQIECAAAECBAgQIECAAAECBAgQIECAAAECBAgQIECAAAECBAgQIECAAAECBAgQIECAAAECBAgQIECAAAECBAgQIECAAAECBAgQIECAAAECBAgQIECAAAECBAgQIECAAAECBAgQIECAAAECBAgQIECAAAECBAgQIECAAAECBAgQIECAAAECBAgQIECAAAECBAgQIECAAAECBAgQIECAAAECBAgQIECAAAECBAgQIECAAAECBAgQIECAAAECBAgQIECAAAECBAgQIECAAAECBAgQIECAAAECBAgQIECAAAECBAgQIECAAAECBAgQIECAAAECBAgQIECAAAECWwn8f72PHdJoQ2U/AAAAAElFTkSuQmCC;" vertex="1" parent="1">
          <mxGeometry x="373" y="50" width="98" height="98" as="geometry" />
        </mxCell>
        <mxCell id="vD54dHwGd8fO52R0_b3Y-4" value="" style="endArrow=classic;html=1;rounded=0;exitX=0.5;exitY=1;exitDx=0;exitDy=0;" edge="1" parent="1" source="vD54dHwGd8fO52R0_b3Y-1">
          <mxGeometry width="50" height="50" relative="1" as="geometry">
            <mxPoint x="393" y="420" as="sourcePoint" />
            <mxPoint x="248" y="500" as="targetPoint" />
          </mxGeometry>
        </mxCell>
        <mxCell id="vD54dHwGd8fO52R0_b3Y-5" value="" style="endArrow=classic;html=1;rounded=0;exitX=0.5;exitY=1;exitDx=0;exitDy=0;" edge="1" parent="1" source="vD54dHwGd8fO52R0_b3Y-2">
          <mxGeometry width="50" height="50" relative="1" as="geometry">
            <mxPoint x="588" y="190" as="sourcePoint" />
            <mxPoint x="589" y="500" as="targetPoint" />
          </mxGeometry>
        </mxCell>
        <mxCell id="vD54dHwGd8fO52R0_b3Y-6" value="" style="endArrow=classic;html=1;rounded=0;exitX=0.5;exitY=1;exitDx=0;exitDy=0;" edge="1" parent="1" source="vD54dHwGd8fO52R0_b3Y-3">
          <mxGeometry width="50" height="50" relative="1" as="geometry">
            <mxPoint x="229" y="420" as="sourcePoint" />
            <mxPoint x="425" y="500" as="targetPoint" />
          </mxGeometry>
        </mxCell>
        <mxCell id="vD54dHwGd8fO52R0_b3Y-7" value="" style="endArrow=classic;html=1;rounded=0;" edge="1" parent="1">
          <mxGeometry width="50" height="50" relative="1" as="geometry">
            <mxPoint x="249" y="160" as="sourcePoint" />
            <mxPoint x="589" y="160" as="targetPoint" />
          </mxGeometry>
        </mxCell>
        <mxCell id="vD54dHwGd8fO52R0_b3Y-10" value="" style="endArrow=classic;html=1;rounded=0;" edge="1" parent="1">
          <mxGeometry width="50" height="50" relative="1" as="geometry">
            <mxPoint x="422" y="183" as="sourcePoint" />
            <mxPoint x="588" y="183" as="targetPoint" />
          </mxGeometry>
        </mxCell>
        <mxCell id="vD54dHwGd8fO52R0_b3Y-11" value="[ROS2]" style="text;html=1;align=center;verticalAlign=middle;whiteSpace=wrap;rounded=0;fontStyle=0;fontSize=9;" vertex="1" parent="1">
          <mxGeometry x="300" y="130" width="60" height="30" as="geometry" />
        </mxCell>
        <mxCell id="vD54dHwGd8fO52R0_b3Y-12" value="[ROS2]" style="text;html=1;align=center;verticalAlign=middle;whiteSpace=wrap;rounded=0;fontStyle=0;fontSize=9;" vertex="1" parent="1">
          <mxGeometry x="471" y="157" width="60" height="30" as="geometry" />
        </mxCell>
        <mxCell id="vD54dHwGd8fO52R0_b3Y-13" value="" style="endArrow=classic;html=1;rounded=0;" edge="1" parent="1">
          <mxGeometry width="50" height="50" relative="1" as="geometry">
            <mxPoint x="590" y="209" as="sourcePoint" />
            <mxPoint x="250" y="209" as="targetPoint" />
          </mxGeometry>
        </mxCell>
        <mxCell id="vD54dHwGd8fO52R0_b3Y-14" value="" style="endArrow=classic;html=1;rounded=0;" edge="1" parent="1">
          <mxGeometry width="50" height="50" relative="1" as="geometry">
            <mxPoint x="589" y="230" as="sourcePoint" />
            <mxPoint x="423" y="230" as="targetPoint" />
          </mxGeometry>
        </mxCell>
        <mxCell id="vD54dHwGd8fO52R0_b3Y-15" value="[ROS2]" style="text;html=1;align=center;verticalAlign=middle;whiteSpace=wrap;rounded=0;fontStyle=0;fontSize=9;" vertex="1" parent="1">
          <mxGeometry x="300" y="183" width="60" height="30" as="geometry" />
        </mxCell>
        <mxCell id="vD54dHwGd8fO52R0_b3Y-16" value="[ROS2]" style="text;html=1;align=center;verticalAlign=middle;whiteSpace=wrap;rounded=0;fontStyle=0;fontSize=9;" vertex="1" parent="1">
          <mxGeometry x="472" y="206" width="60" height="30" as="geometry" />
        </mxCell>
        <mxCell id="vD54dHwGd8fO52R0_b3Y-17" value="Drone&lt;div style=&quot;font-size: 7px;&quot;&gt;Registration&lt;/div&gt;" style="text;html=1;align=center;verticalAlign=middle;whiteSpace=wrap;rounded=0;fontSize=7;strokeColor=default;" vertex="1" parent="1">
          <mxGeometry x="170" y="157" width="60" height="23" as="geometry" />
        </mxCell>
        <mxCell id="vD54dHwGd8fO52R0_b3Y-18" value="Groundstation" style="text;html=1;align=center;verticalAlign=middle;whiteSpace=wrap;rounded=0;" vertex="1" parent="1">
          <mxGeometry x="539.5" y="40" width="99" height="30" as="geometry" />
        </mxCell>
        <mxCell id="vD54dHwGd8fO52R0_b3Y-19" value="Mission" style="text;html=1;align=center;verticalAlign=middle;whiteSpace=wrap;rounded=0;fontSize=7;strokeColor=default;" vertex="1" parent="1">
          <mxGeometry x="170" y="206" width="60" height="23" as="geometry" />
        </mxCell>
        <mxCell id="vD54dHwGd8fO52R0_b3Y-20" value="" style="endArrow=classic;html=1;rounded=0;" edge="1" parent="1">
          <mxGeometry width="50" height="50" relative="1" as="geometry">
            <mxPoint x="248" y="253" as="sourcePoint" />
            <mxPoint x="421" y="253" as="targetPoint" />
          </mxGeometry>
        </mxCell>
        <mxCell id="vD54dHwGd8fO52R0_b3Y-21" value="[MQTT]" style="text;html=1;align=center;verticalAlign=middle;whiteSpace=wrap;rounded=0;fontStyle=0;fontSize=9;" vertex="1" parent="1">
          <mxGeometry x="302" y="228" width="60" height="30" as="geometry" />
        </mxCell>
        <mxCell id="vD54dHwGd8fO52R0_b3Y-22" value="" style="endArrow=classic;html=1;rounded=0;" edge="1" parent="1">
          <mxGeometry width="50" height="50" relative="1" as="geometry">
            <mxPoint x="422" y="280" as="sourcePoint" />
            <mxPoint x="250" y="280" as="targetPoint" />
          </mxGeometry>
        </mxCell>
        <mxCell id="vD54dHwGd8fO52R0_b3Y-23" value="[MQTT]" style="text;html=1;align=center;verticalAlign=middle;whiteSpace=wrap;rounded=0;fontStyle=0;fontSize=9;" vertex="1" parent="1">
          <mxGeometry x="303" y="255" width="60" height="30" as="geometry" />
        </mxCell>
        <mxCell id="vD54dHwGd8fO52R0_b3Y-24" value="Data of&lt;div&gt;Number of&lt;/div&gt;&lt;div&gt;People&lt;/div&gt;" style="text;html=1;align=center;verticalAlign=middle;whiteSpace=wrap;rounded=0;fontSize=7;strokeColor=default;" vertex="1" parent="1">
          <mxGeometry x="170" y="276.5" width="60" height="35" as="geometry" />
        </mxCell>
        <mxCell id="vD54dHwGd8fO52R0_b3Y-25" value="" style="endArrow=classic;html=1;rounded=0;" edge="1" parent="1">
          <mxGeometry width="50" height="50" relative="1" as="geometry">
            <mxPoint x="249" y="306.5" as="sourcePoint" />
            <mxPoint x="422" y="306.5" as="targetPoint" />
          </mxGeometry>
        </mxCell>
        <mxCell id="vD54dHwGd8fO52R0_b3Y-26" value="[MQTT]" style="text;html=1;align=center;verticalAlign=middle;whiteSpace=wrap;rounded=0;fontStyle=0;fontSize=9;" vertex="1" parent="1">
          <mxGeometry x="303" y="281.5" width="60" height="30" as="geometry" />
        </mxCell>
        <mxCell id="vD54dHwGd8fO52R0_b3Y-27" value="" style="endArrow=classic;html=1;rounded=0;" edge="1" parent="1">
          <mxGeometry width="50" height="50" relative="1" as="geometry">
            <mxPoint x="423" y="333.5" as="sourcePoint" />
            <mxPoint x="251" y="333.5" as="targetPoint" />
          </mxGeometry>
        </mxCell>
        <mxCell id="vD54dHwGd8fO52R0_b3Y-28" value="[MQTT]" style="text;html=1;align=center;verticalAlign=middle;whiteSpace=wrap;rounded=0;fontStyle=0;fontSize=9;" vertex="1" parent="1">
          <mxGeometry x="303" y="308.5" width="60" height="30" as="geometry" />
        </mxCell>
        <mxCell id="vD54dHwGd8fO52R0_b3Y-29" value="" style="endArrow=classic;html=1;rounded=0;" edge="1" parent="1">
          <mxGeometry width="50" height="50" relative="1" as="geometry">
            <mxPoint x="589" y="391" as="sourcePoint" />
            <mxPoint x="249" y="391" as="targetPoint" />
          </mxGeometry>
        </mxCell>
        <mxCell id="vD54dHwGd8fO52R0_b3Y-30" value="" style="endArrow=classic;html=1;rounded=0;" edge="1" parent="1">
          <mxGeometry width="50" height="50" relative="1" as="geometry">
            <mxPoint x="588" y="412" as="sourcePoint" />
            <mxPoint x="422" y="412" as="targetPoint" />
          </mxGeometry>
        </mxCell>
        <mxCell id="vD54dHwGd8fO52R0_b3Y-31" value="[ROS2]" style="text;html=1;align=center;verticalAlign=middle;whiteSpace=wrap;rounded=0;fontStyle=0;fontSize=9;" vertex="1" parent="1">
          <mxGeometry x="304" y="365" width="60" height="30" as="geometry" />
        </mxCell>
        <mxCell id="vD54dHwGd8fO52R0_b3Y-32" value="[ROS2]" style="text;html=1;align=center;verticalAlign=middle;whiteSpace=wrap;rounded=0;fontStyle=0;fontSize=9;" vertex="1" parent="1">
          <mxGeometry x="479" y="388" width="60" height="30" as="geometry" />
        </mxCell>
        <mxCell id="vD54dHwGd8fO52R0_b3Y-33" value="Commands&lt;div&gt;from Mission&lt;/div&gt;" style="text;html=1;align=center;verticalAlign=middle;whiteSpace=wrap;rounded=0;fontSize=7;strokeColor=default;" vertex="1" parent="1">
          <mxGeometry x="170" y="385" width="60" height="28" as="geometry" />
        </mxCell>
        <mxCell id="vD54dHwGd8fO52R0_b3Y-34" value="" style="endArrow=classic;html=1;rounded=0;" edge="1" parent="1">
          <mxGeometry width="50" height="50" relative="1" as="geometry">
            <mxPoint x="250" y="435" as="sourcePoint" />
            <mxPoint x="423" y="435" as="targetPoint" />
          </mxGeometry>
        </mxCell>
        <mxCell id="vD54dHwGd8fO52R0_b3Y-35" value="[MQTT]" style="text;html=1;align=center;verticalAlign=middle;whiteSpace=wrap;rounded=0;fontStyle=0;fontSize=9;" vertex="1" parent="1">
          <mxGeometry x="304" y="410" width="60" height="30" as="geometry" />
        </mxCell>
        <mxCell id="vD54dHwGd8fO52R0_b3Y-36" value="" style="endArrow=classic;html=1;rounded=0;" edge="1" parent="1">
          <mxGeometry width="50" height="50" relative="1" as="geometry">
            <mxPoint x="424" y="462" as="sourcePoint" />
            <mxPoint x="252" y="462" as="targetPoint" />
          </mxGeometry>
        </mxCell>
        <mxCell id="vD54dHwGd8fO52R0_b3Y-37" value="[MQTT]" style="text;html=1;align=center;verticalAlign=middle;whiteSpace=wrap;rounded=0;fontStyle=0;fontSize=9;" vertex="1" parent="1">
          <mxGeometry x="304" y="437" width="60" height="30" as="geometry" />
        </mxCell>
        <mxCell id="vD54dHwGd8fO52R0_b3Y-38" value="Data of&lt;div&gt;Number of&lt;/div&gt;&lt;div&gt;People&lt;/div&gt;" style="text;html=1;align=center;verticalAlign=middle;whiteSpace=wrap;rounded=0;fontSize=7;strokeColor=default;" vertex="1" parent="1">
          <mxGeometry x="170" y="432" width="60" height="35" as="geometry" />
        </mxCell>
        <mxCell id="vD54dHwGd8fO52R0_b3Y-39" value="..." style="text;html=1;align=center;verticalAlign=middle;whiteSpace=wrap;rounded=0;fontStyle=0;fontSize=9;" vertex="1" parent="1">
          <mxGeometry x="304" y="337" width="60" height="30" as="geometry" />
        </mxCell>
        <mxCell id="vD54dHwGd8fO52R0_b3Y-40" value="..." style="text;html=1;align=center;verticalAlign=middle;whiteSpace=wrap;rounded=0;fontStyle=0;fontSize=9;" vertex="1" parent="1">
          <mxGeometry x="479.5" y="337" width="60" height="30" as="geometry" />
        </mxCell>
        <mxCell id="vD54dHwGd8fO52R0_b3Y-41" value="..." style="text;html=1;align=center;verticalAlign=middle;whiteSpace=wrap;rounded=0;fontStyle=0;fontSize=9;" vertex="1" parent="1">
          <mxGeometry x="303" y="465" width="60" height="30" as="geometry" />
        </mxCell>
        <mxCell id="vD54dHwGd8fO52R0_b3Y-42" value="..." style="text;html=1;align=center;verticalAlign=middle;whiteSpace=wrap;rounded=0;fontStyle=0;fontSize=9;" vertex="1" parent="1">
          <mxGeometry x="479" y="465" width="60" height="30" as="geometry" />
        </mxCell>
      </root>
    </mxGraphModel>
  </diagram>
</mxfile>
